#N canvas 275 396 1882 1447 24;
#X obj 998 131 tabwrite~ \$0-oscope;
#X obj 1213 37 metro 100;
#X obj 929 21 tgl 15 1 empty empty empty 170 70 0 100 -262144 -1 -1
1 1;
#N canvas 0 0 450 271 (subpatch) 0;
#X array \$0-oscope 572 float 4;
#X coords 0 1 571 -1 500 500 2 0 0;
#X restore 444 43 graph;
#X msg 441 682 resize \$1;
#X obj 441 718 s \$0-oscope;
#X obj 444 554 hsl 500 100 44 4400 1 0 empty empty empty -2 -8 0 10
-208051 -1 -1 0 1;
#X text 885 13 i/o;
#X obj 302 82 vsl 100 500 0.01 1 1 0 empty empty empty 0 -9 0 10 -204786
-1 -1 0 1;
#X floatatom 301 594 5 0 0 0 - - -;
#X text 247 600 Hz;
#X obj 299 695 * 140;
#X floatatom 302 634 5 0 0 0 - - -;
#X text 369 597 Vol;
#X text 374 637 dB;
#X obj 143 817 dac~;
#X text 582 618 Velocidad de la Muestra;
#X text 626 50 Onda Sonora;
#X obj 165 705 osc~;
#X obj 167 80 vsl 100 500 20 7000 1 0 empty empty empty 0 -9 0 10 -204800
-1 -1 0 1;
#X text 35 30 Modulacion /Frecuencia / Amplitud;
#X obj 164 758 *~;
#X floatatom 165 597 7 0 0 0 - - -;
#X text 119 599 Hz;
#X obj 36 80 vsl 100 500 20 7000 1 0 empty empty empty 0 -9 0 10 -232576
-1 -1 0 1;
#X floatatom 35 597 7 0 0 0 - - -;
#X text 26 882 La nueva barra el nuevo objeto |osc~| funciona como
un modulador de la señarl principal \, agregando otra onda sinusal.
;
#X obj 32 742 *~;
#X obj 32 695 osc~;
#X text 30 977 El objeto |osc~| produce una onda sinusoide \, sin embargo
el objeto |phasor~| puede producir ondas más complejas. Intenta intercambiar
en este ejemplo los objetos |osc~| por |phasor~| y obsera cómo se
modifica la onda sonora y el sonido resultante.;
#X connect 1 0 0 0;
#X connect 2 0 1 0;
#X connect 4 0 5 0;
#X connect 6 0 4 0;
#X connect 8 0 9 0;
#X connect 9 0 11 0;
#X connect 9 0 21 1;
#X connect 11 0 12 0;
#X connect 18 0 21 0;
#X connect 19 0 22 0;
#X connect 19 0 28 0;
#X connect 21 0 15 0;
#X connect 21 0 15 1;
#X connect 21 0 0 0;
#X connect 22 0 18 0;
#X connect 24 0 25 0;
#X connect 25 0 27 1;
#X connect 27 0 18 0;
#X connect 28 0 27 0;
#X coords 0 0 1 1 950 660 2 10 10;
