#N canvas 584 0 574 676 10;
#X obj 176 69 inlet;
#X obj 176 99 sel 0;
#X obj 203 128 t b b b;
#X obj 176 176 0;
#X obj 222 180 pack 1 0;
#X obj 267 75 r af;
#X obj 175 352 line~;
#X obj 177 499 outlet~;
#X obj 327 77 r df;
#X obj 368 77 r sf;
#X obj 305 148 + 1;
#X obj 301 177 delay;
#X obj 306 211 pack 0 0 0;
#X obj 306 236 route 0;
#X msg 161 132 stop;
#X obj 74 68 r rf;
#X obj 65 155 pack 0 0;
#X connect 0 0 1 0;
#X connect 1 0 14 0;
#X connect 1 0 16 0;
#X connect 1 1 2 0;
#X connect 2 0 11 0;
#X connect 2 1 4 0;
#X connect 2 2 3 0;
#X connect 3 0 6 0;
#X connect 4 0 6 0;
#X connect 5 0 4 1;
#X connect 5 0 10 0;
#X connect 6 0 7 0;
#X connect 8 0 12 2;
#X connect 9 0 12 1;
#X connect 10 0 11 1;
#X connect 11 0 12 0;
#X connect 12 0 13 0;
#X connect 13 0 6 0;
#X connect 14 0 11 0;
#X connect 15 0 16 1;
#X connect 16 0 6 0;
