#N canvas 153 212 912 516 10;
#N canvas 0 289 1362 685 akai-knobs-servo-a 0;
#X obj 45 32 ctlin;
#X floatatom 45 69 5 0 0 0 - - -;
#X floatatom 80 69 5 0 0 0 - - -;
#X floatatom 116 69 5 0 0 0 - - -;
#X obj 80 93 s knobb;
#X obj 45 118 s knoba;
#X obj 61 163 r knobb;
#X obj 61 191 == 3;
#X obj 28 215 spigot;
#X obj 28 169 r knoba;
#X obj 28 260 outlet;
#X floatatom 33 235 5 0 0 0 - - -;
#X text 73 262 1;
#X obj 161 163 r knobb;
#X obj 128 215 spigot;
#X obj 128 169 r knoba;
#X obj 128 260 outlet;
#X floatatom 133 235 5 0 0 0 - - -;
#X obj 161 191 == 9;
#X text 173 262 2;
#X obj 261 163 r knobb;
#X obj 228 215 spigot;
#X obj 228 169 r knoba;
#X obj 228 260 outlet;
#X floatatom 233 235 5 0 0 0 - - -;
#X text 273 262 3;
#X obj 261 191 == 14;
#X obj 361 163 r knobb;
#X obj 328 215 spigot;
#X obj 328 169 r knoba;
#X obj 328 260 outlet;
#X floatatom 333 235 5 0 0 0 - - -;
#X obj 361 191 == 15;
#X text 373 262 4;
#X obj 461 163 r knobb;
#X obj 428 215 spigot;
#X obj 428 169 r knoba;
#X obj 428 260 outlet;
#X floatatom 433 235 5 0 0 0 - - -;
#X obj 561 163 r knobb;
#X obj 528 215 spigot;
#X obj 528 169 r knoba;
#X obj 528 260 outlet;
#X floatatom 533 235 5 0 0 0 - - -;
#X obj 661 163 r knobb;
#X obj 628 215 spigot;
#X obj 628 169 r knoba;
#X obj 628 260 outlet;
#X floatatom 633 235 5 0 0 0 - - -;
#X obj 761 163 r knobb;
#X obj 728 215 spigot;
#X obj 728 169 r knoba;
#X obj 728 260 outlet;
#X floatatom 733 235 5 0 0 0 - - -;
#X obj 461 191 == 16;
#X obj 561 191 == 17;
#X obj 661 191 == 18;
#X obj 761 191 == 19;
#X text 473 262 5;
#X text 573 262 6;
#X text 673 262 7;
#X text 774 262 8;
#X obj 861 163 r knobb;
#X obj 828 215 spigot;
#X obj 828 169 r knoba;
#X obj 828 260 outlet;
#X floatatom 833 235 5 0 0 0 - - -;
#X obj 961 163 r knobb;
#X obj 928 215 spigot;
#X obj 928 169 r knoba;
#X obj 928 260 outlet;
#X floatatom 933 235 5 0 0 0 - - -;
#X obj 1061 163 r knobb;
#X obj 1028 215 spigot;
#X obj 1028 169 r knoba;
#X obj 1028 260 outlet;
#X floatatom 1033 235 5 0 0 0 - - -;
#X obj 1161 163 r knobb;
#X obj 1128 215 spigot;
#X obj 1128 169 r knoba;
#X obj 1128 260 outlet;
#X floatatom 1133 235 5 0 0 0 - - -;
#X obj 861 191 == 20;
#X obj 961 191 == 21;
#X obj 1061 191 == 22;
#X obj 1161 191 == 23;
#X text 873 262 9;
#X text 972 262 10;
#X text 1073 262 11;
#X text 1174 262 12;
#X connect 0 0 1 0;
#X connect 0 1 2 0;
#X connect 0 2 3 0;
#X connect 1 0 5 0;
#X connect 2 0 4 0;
#X connect 6 0 7 0;
#X connect 7 0 8 1;
#X connect 8 0 10 0;
#X connect 8 0 11 0;
#X connect 9 0 8 0;
#X connect 13 0 18 0;
#X connect 14 0 16 0;
#X connect 14 0 17 0;
#X connect 15 0 14 0;
#X connect 18 0 14 1;
#X connect 20 0 26 0;
#X connect 21 0 23 0;
#X connect 21 0 24 0;
#X connect 22 0 21 0;
#X connect 26 0 21 1;
#X connect 27 0 32 0;
#X connect 28 0 30 0;
#X connect 28 0 31 0;
#X connect 29 0 28 0;
#X connect 32 0 28 1;
#X connect 34 0 54 0;
#X connect 35 0 37 0;
#X connect 35 0 38 0;
#X connect 36 0 35 0;
#X connect 39 0 55 0;
#X connect 40 0 42 0;
#X connect 40 0 43 0;
#X connect 41 0 40 0;
#X connect 44 0 56 0;
#X connect 45 0 47 0;
#X connect 45 0 48 0;
#X connect 46 0 45 0;
#X connect 49 0 57 0;
#X connect 50 0 52 0;
#X connect 50 0 53 0;
#X connect 51 0 50 0;
#X connect 54 0 35 1;
#X connect 55 0 40 1;
#X connect 56 0 45 1;
#X connect 57 0 50 1;
#X connect 62 0 82 0;
#X connect 63 0 65 0;
#X connect 63 0 66 0;
#X connect 64 0 63 0;
#X connect 67 0 83 0;
#X connect 68 0 70 0;
#X connect 68 0 71 0;
#X connect 69 0 68 0;
#X connect 72 0 84 0;
#X connect 73 0 75 0;
#X connect 73 0 76 0;
#X connect 74 0 73 0;
#X connect 77 0 85 0;
#X connect 78 0 80 0;
#X connect 78 0 81 0;
#X connect 79 0 78 0;
#X connect 82 0 63 1;
#X connect 83 0 68 1;
#X connect 84 0 73 1;
#X connect 85 0 78 1;
#X restore 180 -65 pd akai-knobs-servo-a;
#N canvas 0 311 1362 685 akai-knobs-servo-b 0;
#X obj 45 32 ctlin;
#X floatatom 45 69 5 0 0 0 - - -;
#X floatatom 80 69 5 0 0 0 - - -;
#X floatatom 116 69 5 0 0 0 - - -;
#X obj 28 215 spigot;
#X obj 28 260 outlet;
#X floatatom 33 235 5 0 0 0 - - -;
#X text 73 262 1;
#X obj 128 215 spigot;
#X obj 128 260 outlet;
#X floatatom 133 235 5 0 0 0 - - -;
#X text 173 262 2;
#X obj 228 215 spigot;
#X obj 228 260 outlet;
#X floatatom 233 235 5 0 0 0 - - -;
#X text 273 262 3;
#X obj 328 215 spigot;
#X obj 328 260 outlet;
#X floatatom 333 235 5 0 0 0 - - -;
#X text 373 262 4;
#X obj 428 215 spigot;
#X obj 428 260 outlet;
#X floatatom 433 235 5 0 0 0 - - -;
#X obj 528 215 spigot;
#X obj 528 260 outlet;
#X floatatom 533 235 5 0 0 0 - - -;
#X obj 628 215 spigot;
#X obj 628 260 outlet;
#X floatatom 633 235 5 0 0 0 - - -;
#X obj 728 215 spigot;
#X obj 728 260 outlet;
#X floatatom 733 235 5 0 0 0 - - -;
#X text 473 262 5;
#X text 573 262 6;
#X text 673 262 7;
#X text 774 262 8;
#X obj 828 215 spigot;
#X obj 828 260 outlet;
#X floatatom 833 235 5 0 0 0 - - -;
#X obj 928 215 spigot;
#X obj 928 260 outlet;
#X floatatom 933 235 5 0 0 0 - - -;
#X obj 1028 215 spigot;
#X obj 1028 260 outlet;
#X floatatom 1033 235 5 0 0 0 - - -;
#X obj 1128 215 spigot;
#X obj 1128 260 outlet;
#X floatatom 1133 235 5 0 0 0 - - -;
#X text 873 262 9;
#X text 972 262 10;
#X text 1073 262 11;
#X text 1174 262 12;
#X obj 161 190 == 53;
#X obj 260 191 == 54;
#X obj 361 191 == 55;
#X obj 461 191 == 57;
#X obj 561 191 == 58;
#X obj 661 191 == 59;
#X obj 761 191 == 60;
#X obj 861 191 == 61;
#X obj 961 191 == 62;
#X obj 45 118 s knoba-b;
#X obj 80 93 s knobb-b;
#X obj 61 163 r knobb-b;
#X obj 28 169 r knoba-b;
#X obj 128 169 r knoba-b;
#X obj 161 163 r knobb-b;
#X obj 228 169 r knoba-b;
#X obj 261 163 r knobb-b;
#X obj 328 169 r knoba-b;
#X obj 361 163 r knobb-b;
#X obj 461 163 r knobb-b;
#X obj 428 169 r knoba-b;
#X obj 528 169 r knoba-b;
#X obj 561 163 r knobb-b;
#X obj 628 169 r knoba-b;
#X obj 661 163 r knobb-b;
#X obj 728 169 r knoba-b;
#X obj 761 163 r knobb-b;
#X obj 828 169 r knoba-b;
#X obj 861 163 r knobb-b;
#X obj 961 163 r knobb-b;
#X obj 928 169 r knoba-b;
#X obj 1028 169 r knoba-b;
#X obj 1061 163 r knobb-b;
#X obj 1128 169 r knoba-b;
#X obj 1161 163 r knobb-b;
#X obj 61 191 == 65;
#X obj 1061 191 == 66;
#X obj 1161 191 == 64;
#X connect 0 0 1 0;
#X connect 0 1 2 0;
#X connect 0 2 3 0;
#X connect 1 0 61 0;
#X connect 2 0 62 0;
#X connect 4 0 5 0;
#X connect 4 0 6 0;
#X connect 8 0 9 0;
#X connect 8 0 10 0;
#X connect 12 0 13 0;
#X connect 12 0 14 0;
#X connect 16 0 17 0;
#X connect 16 0 18 0;
#X connect 20 0 21 0;
#X connect 20 0 22 0;
#X connect 23 0 24 0;
#X connect 23 0 25 0;
#X connect 26 0 27 0;
#X connect 26 0 28 0;
#X connect 29 0 30 0;
#X connect 29 0 31 0;
#X connect 36 0 37 0;
#X connect 36 0 38 0;
#X connect 39 0 40 0;
#X connect 39 0 41 0;
#X connect 42 0 43 0;
#X connect 42 0 44 0;
#X connect 45 0 46 0;
#X connect 45 0 47 0;
#X connect 52 0 8 1;
#X connect 53 0 12 1;
#X connect 54 0 16 1;
#X connect 55 0 20 1;
#X connect 56 0 23 1;
#X connect 57 0 26 1;
#X connect 58 0 29 1;
#X connect 59 0 36 1;
#X connect 60 0 39 1;
#X connect 63 0 87 0;
#X connect 64 0 4 0;
#X connect 65 0 8 0;
#X connect 66 0 52 0;
#X connect 67 0 12 0;
#X connect 68 0 53 0;
#X connect 69 0 16 0;
#X connect 70 0 54 0;
#X connect 71 0 55 0;
#X connect 72 0 20 0;
#X connect 73 0 23 0;
#X connect 74 0 56 0;
#X connect 75 0 26 0;
#X connect 76 0 57 0;
#X connect 77 0 29 0;
#X connect 78 0 58 0;
#X connect 79 0 36 0;
#X connect 80 0 59 0;
#X connect 81 0 60 0;
#X connect 82 0 39 0;
#X connect 83 0 42 0;
#X connect 84 0 88 0;
#X connect 85 0 45 0;
#X connect 86 0 89 0;
#X connect 87 0 4 1;
#X connect 88 0 42 1;
#X connect 89 0 45 1;
#X restore 330 -66 pd akai-knobs-servo-b;
#X obj 180 23 knob 15 15 0 127 0 0 empty empty empty 0 -8 0 8 -262144
-1 -1 0 1;
#X obj 200 23 knob 15 15 0 127 0 0 empty empty empty 0 -8 0 8 -262144
-1 -1 0 1;
#X obj 220 23 knob 15 15 0 127 0 0 empty empty empty 0 -8 0 8 -262144
-1 -1 0 1;
#X obj 240 23 knob 15 15 0 127 0 0 empty empty empty 0 -8 0 8 -262144
-1 -1 0 1;
#X obj 180 47 knob 15 15 0 127 0 0 empty empty empty 0 -8 0 8 -262144
-1 -1 0 1;
#X obj 200 47 knob 15 15 0 127 0 0 empty empty empty 0 -8 0 8 -262144
-1 -1 0 1;
#X obj 220 47 knob 15 15 0 127 0 0 empty empty empty 0 -8 0 8 -262144
-1 -1 0 1;
#X obj 240 47 knob 15 15 0 127 0 0 empty empty empty 0 -8 0 8 -262144
-1 -1 0 1;
#X obj 180 71 knob 15 15 0 127 0 0 empty empty empty 0 -8 0 8 -262144
-1 -1 0 1;
#X obj 200 71 knob 15 15 0 127 0 0 empty empty empty 0 -8 0 8 -262144
-1 -1 0 1;
#X obj 220 71 knob 15 15 0 127 0 0 empty empty empty 0 -8 0 8 -262144
-1 -1 0 1;
#X obj 240 71 knob 15 15 0 127 0 0 empty empty empty 0 -8 0 8 -262144
-1 -1 0 1;
#X obj 267 23 knob 15 15 0 127 0 0 empty empty empty 0 -8 0 8 -262144
-1 -1 0 1;
#X obj 287 23 knob 15 15 0 127 0 0 empty empty empty 0 -8 0 8 -262144
-1 -1 0 1;
#X obj 307 23 knob 15 15 0 127 0 0 empty empty empty 0 -8 0 8 -262144
-1 -1 0 1;
#X obj 327 23 knob 15 15 0 127 0 0 empty empty empty 0 -8 0 8 -262144
-1 -1 0 1;
#X obj 267 47 knob 15 15 0 127 0 0 empty empty empty 0 -8 0 8 -262144
-1 -1 0 1;
#X obj 287 47 knob 15 15 0 127 0 0 empty empty empty 0 -8 0 8 -262144
-1 -1 0 1;
#X obj 307 47 knob 15 15 0 127 0 0 empty empty empty 0 -8 0 8 -262144
-1 -1 0 1;
#X obj 327 47 knob 15 15 0 127 0 0 empty empty empty 0 -8 0 8 -262144
-1 -1 0 1;
#X obj 267 71 knob 15 15 0 127 0 0 empty empty empty 0 -8 0 8 -262144
-1 -1 0 1;
#X obj 287 71 knob 15 15 0 127 0 0 empty empty empty 0 -8 0 8 -262144
-1 -1 0 1;
#X obj 307 71 knob 15 15 0 127 0 0 empty empty empty 0 -8 0 8 -262144
-1 -1 0 1;
#X obj 327 71 knob 15 15 0 127 0 0 empty empty empty 0 -8 0 8 -262144
-1 -1 0 1;
#X obj 357 153 s kb1b;
#X obj 408 153 s kb2b;
#X obj 457 153 s kb3b;
#X obj 507 153 s kb4b;
#X obj 357 173 s kb5b;
#X obj 408 173 s kb6b;
#X obj 457 173 s kb7b;
#X obj 507 173 s kb8b;
#X obj 357 193 s kb9b;
#X obj 408 193 s kb10b;
#X obj 457 193 s kb11b;
#X obj 507 193 s kb12b;
#X obj 180 153 s kb1a;
#X obj 231 153 s kb2a;
#X obj 277 153 s kb3a;
#X obj 327 153 s kb4a;
#X obj 180 173 s kb5a;
#X obj 231 173 s kb6a;
#X obj 277 173 s kb7a;
#X obj 327 173 s kb8a;
#X obj 180 193 s kb9a;
#X obj 231 193 s kb10a;
#X obj 277 193 s kb11a;
#X obj 327 193 s kb12a;
#X obj 68 21 cnv 15 15 70 empty empty empty 20 12 0 14 -228856 -66577
0;
#X text 283 3 bank B;
#X text 196 3 bank A;
#X obj 157 21 cnv 15 15 70 empty empty empty 20 12 0 14 -228856 -66577
0;
#X obj 132 27 bng 18 250 50 0 empty empty empty 17 7 0 10 -262144 -1
-1;
#X obj 111 27 bng 18 250 50 0 empty empty empty 17 7 0 10 -262144 -1
-1;
#X obj 90 27 bng 18 250 50 0 empty empty empty 17 7 0 10 -262144 -1
-1;
#X obj 132 48 bng 18 250 50 0 empty empty empty 17 7 0 10 -262144 -1
-1;
#X obj 111 48 bng 18 250 50 0 empty empty empty 17 7 0 10 -262144 -1
-1;
#X obj 90 48 bng 18 250 50 0 empty empty empty 17 7 0 10 -262144 -1
-1;
#X obj 132 69 bng 18 250 50 0 empty empty empty 17 7 0 10 -262144 -1
-1;
#X obj 111 69 bng 18 250 50 0 empty empty empty 17 7 0 10 -262144 -1
-1;
#X obj 90 69 bng 18 250 50 0 empty empty empty 17 7 0 10 -262144 -1
-1;
#X obj 13 173 s apad1;
#X obj 62 173 s apad2;
#X obj 111 173 s apad3;
#X obj 13 193 s apad4;
#X obj 62 193 s apad5;
#X obj 111 193 s apad6;
#X text 12 147 no han sido conectados;
#X text 12 157 conectar directo a entrada;
#N canvas 738 206 450 300 akai-pads 0;
#X restore 74 -64 pd akai-pads;
#X obj 38 31 vsl 20 50 0 127 0 0 empty empty empty 0 -9 0 10 -262144
-1 -1 0 1;
#X obj 11 -153 bendin;
#X floatatom 11 -134 5 0 0 0 - - -;
#X floatatom 38 -64 5 0 0 0 - - -;
#X obj 38 -84 ctlin 1;
#X obj 11 -115 autoscale -1 1;
#X text 37 28 127;
#X obj 11 31 vsl 20 50 -1 1 0 0 empty empty empty 0 -9 0 10 -262144
-1 -1 0 1;
#X text 16 28 1;
#X text 10 69 -1;
#X obj -124 218 s apitch;
#X obj -65 217 s amod;
#X text 102 3 pads;
#X obj 13 213 s apad7;
#X obj 62 213 s apad8;
#X obj 111 213 s apad9;
#X connect 0 0 2 0;
#X connect 0 1 3 0;
#X connect 0 2 4 0;
#X connect 0 3 5 0;
#X connect 0 4 6 0;
#X connect 0 5 7 0;
#X connect 0 6 8 0;
#X connect 0 7 9 0;
#X connect 0 8 10 0;
#X connect 0 9 11 0;
#X connect 0 10 12 0;
#X connect 0 11 13 0;
#X connect 1 0 14 0;
#X connect 1 1 15 0;
#X connect 1 2 16 0;
#X connect 1 3 17 0;
#X connect 1 4 18 0;
#X connect 1 5 19 0;
#X connect 1 6 20 0;
#X connect 1 7 21 0;
#X connect 1 8 22 0;
#X connect 1 9 23 0;
#X connect 1 10 24 0;
#X connect 1 11 25 0;
#X connect 2 0 38 0;
#X connect 3 0 39 0;
#X connect 4 0 40 0;
#X connect 5 0 41 0;
#X connect 6 0 42 0;
#X connect 7 0 43 0;
#X connect 8 0 44 0;
#X connect 9 0 45 0;
#X connect 10 0 46 0;
#X connect 11 0 47 0;
#X connect 12 0 48 0;
#X connect 13 0 49 0;
#X connect 14 0 26 0;
#X connect 15 0 27 0;
#X connect 16 0 28 0;
#X connect 17 0 29 0;
#X connect 18 0 30 0;
#X connect 19 0 31 0;
#X connect 20 0 32 0;
#X connect 21 0 33 0;
#X connect 22 0 34 0;
#X connect 23 0 35 0;
#X connect 24 0 36 0;
#X connect 25 0 37 0;
#X connect 72 0 83 0;
#X connect 73 0 74 0;
#X connect 74 0 77 0;
#X connect 75 0 72 0;
#X connect 76 0 75 0;
#X connect 77 0 79 0;
#X connect 79 0 82 0;
#X coords 0 -1 1 1 350 100 1 0 0;
