#N canvas 30 78 1114 686 10;
#X obj -510 150 randomlab;
#X obj -515 119 bng 25 250 50 0 empty empty empty 17 7 0 10 -191407
-1 -1;
#X obj -485 119 bng 25 250 50 0 empty empty empty 17 7 0 10 -262144
-1 -1;
#X floatatom -459 123 5 0 0 0 - - -;
#X obj -377 115 r rn1ra;
#X floatatom -377 142 5 0 0 0 - - -;
#X obj -530 175 hsl 128 15 0 127 0 0 empty empty empty -2 -8 0 10 -262144
-1 -1 0 1;
#X obj -533 194 s ctltest;
#X floatatom -327 142 5 0 0 0 - - -;
#X floatatom -277 142 5 0 0 0 - - -;
#X floatatom -227 142 5 0 0 0 - - -;
#X floatatom -177 142 5 0 0 0 - - -;
#X floatatom -127 142 5 0 0 0 - - -;
#X obj -227 115 r rn81;
#X obj -177 115 r rn82;
#X obj -127 115 r rn83;
#X floatatom -377 192 5 0 0 0 - - -;
#X floatatom -327 192 5 0 0 0 - - -;
#X floatatom -277 192 5 0 0 0 - - -;
#X floatatom -227 192 5 0 0 0 - - -;
#X obj -377 165 r rn2da;
#X obj -327 165 r rn4ta;
#X obj -277 165 r rn6ta;
#X obj -227 165 r rn7ma;
#X obj -327 115 r rn3ra;
#X obj -277 115 r rn5ta;
#X obj -517 436 +;
#X obj -502 416 r rn1ra;
#X msg -528 416 0;
#X floatatom -517 475 5 0 0 0 - - -;
#X floatatom -434 477 5 0 0 0 - - -;
#X obj -434 436 +;
#X msg -445 416 0;
#X obj -528 399 bng 15 250 50 0 empty empty empty 17 7 0 10 -262144
-1 -1;
#X obj -445 399 bng 15 250 50 0 empty empty empty 17 7 0 10 -262144
-1 -1;
#X floatatom -354 477 5 0 0 0 - - -;
#X obj -354 436 +;
#X msg -365 416 0;
#X obj -365 399 bng 15 250 50 0 empty empty empty 17 7 0 10 -262144
-1 -1;
#X obj -339 416 r rn5ta;
#X obj -419 416 r rn3ra;
#X obj -210 237 random 10;
#X obj -210 259 sel 0 1 2 3 4 5 6 7 8 9;
#X obj -237 436 +;
#X msg -248 416 0;
#X floatatom -237 475 5 0 0 0 - - -;
#X floatatom -154 477 5 0 0 0 - - -;
#X obj -154 436 +;
#X msg -165 416 0;
#X obj -248 399 bng 15 250 50 0 empty empty empty 17 7 0 10 -262144
-1 -1;
#X obj -165 399 bng 15 250 50 0 empty empty empty 17 7 0 10 -262144
-1 -1;
#X floatatom -74 477 5 0 0 0 - - -;
#X obj -74 436 +;
#X msg -85 416 0;
#X obj -85 399 bng 15 250 50 0 empty empty empty 17 7 0 10 -262144
-1 -1;
#X obj -462 330 random 6;
#X obj -462 352 sel 0 1 2 3 4 5;
#X obj -248 330 random 8;
#X obj -248 352 sel 0 1 2 3 4 5 6 7;
#X obj -222 416 r rn2da;
#X obj -139 416 r rn4ta;
#X obj -59 416 r rn6ta;
#X floatatom 6 477 5 0 0 0 - - -;
#X obj 6 436 +;
#X msg -5 416 0;
#X obj -5 399 bng 15 250 50 0 empty empty empty 17 7 0 10 -262144 -1
-1;
#X obj 21 416 r rn7ta;
#X obj 123 436 +;
#X msg 112 416 0;
#X floatatom 123 475 5 0 0 0 - - -;
#X floatatom 206 477 5 0 0 0 - - -;
#X obj 206 436 +;
#X msg 195 416 0;
#X obj 112 399 bng 15 250 50 0 empty empty empty 17 7 0 10 -262144
-1 -1;
#X obj 195 399 bng 15 250 50 0 empty empty empty 17 7 0 10 -262144
-1 -1;
#X floatatom 286 477 5 0 0 0 - - -;
#X obj 286 436 +;
#X msg 275 416 0;
#X obj 275 399 bng 15 250 50 0 empty empty empty 17 7 0 10 -262144
-1 -1;
#X floatatom 355 477 5 0 0 0 - - -;
#X msg 355 416 0;
#X obj 355 399 bng 15 250 50 0 empty empty empty 17 7 0 10 -262144
-1 -1;
#X obj 112 335 random 10;
#X obj 112 359 sel 0 1 2 3 4 5 6 7 8 9;
#X obj 138 416 r rn81;
#X obj 221 416 r rn82;
#X obj 301 416 r rn83;
#X obj -210 215 r velcalc;
#X obj -181 577 *~;
#X obj -120 605 hsl 128 15 0 1 0 0 empty empty empty -2 -8 0 10 -262144
-1 -1 0 1;
#X obj -527 523 notaloca;
#X obj 98 621 hsl 128 15 0 127 0 0 empty empty empty -2 -8 0 10 -262144
-1 -1 0 1;
#X obj -54 664 hip~;
#X obj -442 523 notaloca2;
#X obj -358 524 notaloca3;
#X obj -248 524 notaloca4;
#X obj -168 524 notaloca5;
#X obj -88 524 notaloca6;
#X obj -8 524 notaloca7;
#X obj 112 524 notaloca8;
#X obj 192 524 notaloca9;
#X obj 272 524 notaloca10;
#X obj 352 524 notaloca11;
#X obj 146 198 bng 30 250 50 0 empty empty empty 17 7 0 10 -228856
-1 -1;
#X obj 146 163 bng 30 250 50 0 empty empty empty 17 7 0 10 -262144
-1 -1;
#X obj 195 143 hsl 100 20 0 127 0 0 empty empty empty -2 -8 0 10 -232576
-1 -1 0 1;
#X obj 195 165 hsl 100 20 0 1 0 0 empty empty empty -2 -8 0 10 -204786
-1 -1 0 1;
#X obj 195 188 hsl 100 20 0 127 0 0 empty empty empty -2 -8 0 10 -262130
-1 -1 0 1;
#X obj 195 210 hsl 100 20 0 127 0 0 empty empty empty -2 -8 0 10 -262130
-1 -1 0 1;
#X obj -54 694 lop~;
#X obj -53 723 outlet~;
#X floatatom 145 139 5 0 0 0 - - -;
#X text 301 143 pitch;
#X text 301 165 vol;
#X text 301 189 l-pass;
#X text 301 210 h-pass;
#X obj 54 53 r avatartemp;
#X text 157 113 -AVATAR- glitch kreator;
#X text 111 167 start;
#X text 113 194 stop;
#X text 116 178 (z);
#X text 118 205 (x);
#X obj 438 283 key;
#X floatatom 436 305 5 0 0 0 - - -;
#X obj 439 335 sel 122 120;
#X connect 1 0 0 0;
#X connect 2 0 0 1;
#X connect 3 0 0 2;
#X connect 4 0 5 0;
#X connect 6 0 7 0;
#X connect 13 0 10 0;
#X connect 14 0 11 0;
#X connect 15 0 12 0;
#X connect 20 0 16 0;
#X connect 21 0 17 0;
#X connect 22 0 18 0;
#X connect 23 0 19 0;
#X connect 24 0 8 0;
#X connect 25 0 9 0;
#X connect 26 0 29 0;
#X connect 27 0 26 1;
#X connect 28 0 26 0;
#X connect 29 0 90 0;
#X connect 30 0 93 0;
#X connect 31 0 30 0;
#X connect 32 0 31 0;
#X connect 33 0 28 0;
#X connect 33 0 90 1;
#X connect 34 0 32 0;
#X connect 34 0 93 1;
#X connect 35 0 94 0;
#X connect 36 0 35 0;
#X connect 37 0 36 0;
#X connect 38 0 37 0;
#X connect 38 0 94 1;
#X connect 39 0 36 1;
#X connect 40 0 31 1;
#X connect 41 0 42 0;
#X connect 42 0 55 0;
#X connect 42 1 55 0;
#X connect 42 2 55 0;
#X connect 42 3 55 0;
#X connect 42 4 57 0;
#X connect 42 5 81 0;
#X connect 42 6 57 0;
#X connect 42 7 57 0;
#X connect 42 8 82 0;
#X connect 42 9 82 0;
#X connect 43 0 45 0;
#X connect 44 0 43 0;
#X connect 45 0 95 0;
#X connect 46 0 96 0;
#X connect 47 0 46 0;
#X connect 48 0 47 0;
#X connect 49 0 44 0;
#X connect 49 0 95 1;
#X connect 50 0 48 0;
#X connect 50 0 96 1;
#X connect 51 0 97 0;
#X connect 52 0 51 0;
#X connect 53 0 52 0;
#X connect 53 0 97 1;
#X connect 54 0 53 0;
#X connect 55 0 56 0;
#X connect 56 0 33 0;
#X connect 56 1 33 0;
#X connect 56 2 33 0;
#X connect 56 3 34 0;
#X connect 56 4 34 0;
#X connect 56 5 38 0;
#X connect 56 6 38 0;
#X connect 57 0 58 0;
#X connect 58 0 49 0;
#X connect 58 1 49 0;
#X connect 58 2 49 0;
#X connect 58 3 50 0;
#X connect 58 4 50 0;
#X connect 58 5 65 0;
#X connect 58 6 54 0;
#X connect 58 7 54 0;
#X connect 59 0 43 1;
#X connect 60 0 47 1;
#X connect 61 0 52 1;
#X connect 62 0 98 0;
#X connect 63 0 62 0;
#X connect 64 0 63 0;
#X connect 65 0 64 0;
#X connect 65 0 98 1;
#X connect 66 0 63 1;
#X connect 67 0 69 0;
#X connect 68 0 67 0;
#X connect 69 0 99 0;
#X connect 70 0 100 0;
#X connect 71 0 70 0;
#X connect 72 0 71 0;
#X connect 73 0 68 0;
#X connect 73 0 99 1;
#X connect 74 0 72 0;
#X connect 74 0 100 1;
#X connect 75 0 101 0;
#X connect 76 0 75 0;
#X connect 77 0 76 0;
#X connect 78 0 77 0;
#X connect 78 0 101 1;
#X connect 79 0 102 0;
#X connect 80 0 79 0;
#X connect 81 0 80 0;
#X connect 81 0 102 1;
#X connect 82 0 83 0;
#X connect 83 0 73 0;
#X connect 83 1 73 0;
#X connect 83 2 74 0;
#X connect 83 3 74 0;
#X connect 83 4 78 0;
#X connect 83 6 78 0;
#X connect 83 8 81 0;
#X connect 83 9 81 0;
#X connect 83 10 81 0;
#X connect 84 0 67 1;
#X connect 85 0 71 1;
#X connect 86 0 76 1;
#X connect 87 0 41 0;
#X connect 88 0 92 0;
#X connect 89 0 88 1;
#X connect 90 0 88 0;
#X connect 91 0 92 1;
#X connect 92 0 109 0;
#X connect 93 0 88 0;
#X connect 94 0 88 0;
#X connect 95 0 88 0;
#X connect 96 0 88 0;
#X connect 97 0 88 0;
#X connect 98 0 88 0;
#X connect 99 0 88 0;
#X connect 100 0 88 0;
#X connect 101 0 88 0;
#X connect 102 0 88 0;
#X connect 103 0 1 0;
#X connect 104 0 2 0;
#X connect 105 0 6 0;
#X connect 106 0 89 0;
#X connect 107 0 109 1;
#X connect 108 0 91 0;
#X connect 109 0 110 0;
#X connect 111 0 3 0;
#X connect 116 0 111 0;
#X connect 122 0 123 0;
#X connect 123 0 124 0;
#X connect 124 0 104 0;
#X connect 124 1 103 0;
#X coords 0 -1 1 1 250 150 1 100 100;
