#N canvas 332 187 914 541 10;
#X obj -246 88 pack 0 0 0;
#X obj -246 116 route 1 2 3 4 5 6 7 8 9 10;
#X obj -246 60 poly 5 1;
#X obj -246 143 notas;
#X obj -205 201 notas;
#X obj -236 154 notas;
#X obj -225 161 notas;
#X obj -215 181 notas;
#X obj -209 295 *~;
#X obj -209 438 outlet~;
#X obj 113 161 vsl 15 70 0 127 0 0 empty empty empty 0 -9 0 10 -204786
-1 -1 0 1;
#X obj -194 275 / 127;
#X obj 152 169 vsl 15 50 0 10000 0 0 empty empty A 0 -9 0 10 -262144
-1 -1 0 1;
#X obj 172 169 vsl 15 50 0 10000 0 0 empty empty D 0 -9 0 10 -228856
-1 -1 0 1;
#X obj 192 169 vsl 15 50 0 1 0 0 empty empty S 0 -9 0 10 -191407 -1
-1 0 1;
#X obj 212 169 vsl 15 50 0 10000 0 0 empty empty R 0 -9 0 10 -162280
-1 -1 0 1;
#X obj 114 249 s af;
#X obj 154 249 s df;
#X obj 194 249 s sf;
#X obj 234 249 s rf;
#X obj 16 119 s wf1;
#X obj 16 149 s wf2;
#X obj 16 179 s wf3;
#X obj 16 209 s wf4;
#X obj 113 125 bng 20 250 50 0 empty empty empty 17 7 0 10 -262144
-1 -1;
#X obj 144 125 bng 20 250 50 0 empty empty empty 17 7 0 10 -262144
-1 -1;
#X obj 175 125 bng 20 250 50 0 empty empty empty 17 7 0 10 -262144
-1 -1;
#X obj 206 125 bng 20 250 50 0 empty empty empty 17 7 0 10 -262144
-1 -1;
#X text 111 104 sin;
#X text 143 103 saw;
#X text 173 103 tri;
#X text 205 103 cua;
#X obj -246 39 inlet;
#X obj -174 39 inlet;
#X obj -208 400 *~;
#N canvas 701 386 450 300 axtivator 0;
#X obj -166 137 outlet;
#X obj -166 13 key;
#X msg -166 86 1;
#X msg -135 87 0;
#X obj -166 37 sel 97 119 115 101 100 102 116 103 121 104 117 106 107
39 191;
#X connect 1 0 4 0;
#X connect 2 0 0 0;
#X connect 3 0 0 0;
#X connect 4 0 2 0;
#X connect 4 1 2 0;
#X connect 4 2 2 0;
#X connect 4 3 2 0;
#X connect 4 4 2 0;
#X connect 4 5 2 0;
#X connect 4 6 2 0;
#X connect 4 7 2 0;
#X connect 4 8 2 0;
#X connect 4 9 2 0;
#X connect 4 10 2 0;
#X connect 4 11 2 0;
#X connect 4 12 2 0;
#X connect 4 13 3 0;
#X connect 4 14 2 0;
#X restore -193 378 pd axtivator;
#X obj 367 59 r kb2a;
#X obj 367 101 * 10000;
#X obj 367 82 / 127;
#X obj -195 211 notas;
#X obj -185 221 notas;
#X obj -175 229 notas;
#X obj -164 235 notas;
#X obj -148 243 notas;
#X obj -18 35 r dpset2;
#X obj 36 35 r dpset3;
#X obj 90 35 r dpset4;
#X obj 144 35 r dpset5;
#X obj 198 35 r dpset6;
#X obj -18 54 sel 0 1 2 3;
#X msg 77 324 0;
#X msg 104 324 1;
#X msg 131 324 2;
#X msg 158 324 3;
#X obj 30 360 s dpset1r;
#X obj 84 360 s dpset2r;
#X obj 138 360 s dpset3r;
#X obj 192 360 s dpset4r;
#X obj 246 360 s dpset5r;
#X obj 300 360 s dpset6r;
#X obj 325 59 r kb1a;
#X obj 411 58 r kb3a;
#X obj 454 58 r kb4a;
#X obj 411 101 * 10000;
#X obj 411 82 / 127;
#X obj 459 102 * 10000;
#X obj 459 83 / 127;
#X obj -64 34 r mxw3;
#X connect 0 0 1 0;
#X connect 1 0 3 0;
#X connect 1 1 5 0;
#X connect 1 2 6 0;
#X connect 1 3 7 0;
#X connect 1 4 4 0;
#X connect 1 5 39 0;
#X connect 1 6 40 0;
#X connect 1 7 41 0;
#X connect 1 8 42 0;
#X connect 1 9 43 0;
#X connect 2 0 0 0;
#X connect 2 1 0 1;
#X connect 2 2 0 2;
#X connect 3 0 8 0;
#X connect 4 0 8 0;
#X connect 5 0 8 0;
#X connect 6 0 8 0;
#X connect 7 0 8 0;
#X connect 8 0 34 0;
#X connect 10 0 11 0;
#X connect 10 0 54 0;
#X connect 11 0 8 1;
#X connect 12 0 16 0;
#X connect 12 0 56 0;
#X connect 13 0 17 0;
#X connect 13 0 57 0;
#X connect 14 0 18 0;
#X connect 14 0 58 0;
#X connect 15 0 19 0;
#X connect 15 0 59 0;
#X connect 24 0 20 0;
#X connect 24 0 50 0;
#X connect 25 0 21 0;
#X connect 25 0 51 0;
#X connect 26 0 22 0;
#X connect 26 0 52 0;
#X connect 27 0 23 0;
#X connect 27 0 53 0;
#X connect 32 0 2 0;
#X connect 33 0 2 1;
#X connect 34 0 9 0;
#X connect 35 0 34 1;
#X connect 36 0 38 0;
#X connect 37 0 12 0;
#X connect 38 0 37 0;
#X connect 39 0 8 0;
#X connect 40 0 8 0;
#X connect 41 0 8 0;
#X connect 42 0 8 0;
#X connect 43 0 8 0;
#X connect 44 0 49 0;
#X connect 45 0 12 0;
#X connect 46 0 13 0;
#X connect 47 0 14 0;
#X connect 48 0 15 0;
#X connect 49 0 24 0;
#X connect 49 1 25 0;
#X connect 49 2 26 0;
#X connect 49 3 27 0;
#X connect 50 0 55 0;
#X connect 51 0 55 0;
#X connect 52 0 55 0;
#X connect 53 0 55 0;
#X connect 60 0 10 0;
#X connect 61 0 64 0;
#X connect 62 0 66 0;
#X connect 63 0 13 0;
#X connect 64 0 63 0;
#X connect 65 0 15 0;
#X connect 66 0 65 0;
#X connect 67 0 10 0;
#X coords 0 -1 1 1 140 140 2 100 100;
