#N canvas 7 65 1313 676 10;
#N canvas 0 0 450 300 (subpatch) 0;
#X array channelL 1.87475e+006 float 2;
#X coords 0 1 1.87475e+006 -1 100 70 1 0 0;
#X restore 115 196 graph;
#N canvas 0 0 450 300 (subpatch) 0;
#X array channelR 1.87475e+006 float 2;
#X coords 0 1 1.87475e+006 -1 100 70 1 0 0;
#X restore 225 196 graph;
#X obj -220 -32 bng 15 250 50 0 empty empty empty 17 7 0 10 -262144
-1 -1;
#X obj -220 -11 openpanel;
#X msg -220 12 read -resize \$1 channelL channelR;
#X obj -220 37 soundfiler;
#X floatatom -200 68 5 0 0 0 - - -;
#X obj -200 90 s sampleSize;
#X obj -220 120 expr 44100 / $f1;
#X floatatom -199 145 5 0 0 0 - - -;
#X obj -220 185 phasor~;
#X obj -220 233 *~;
#X obj -205 207 r sampleSize;
#X obj -262 282 tabread4~ channelL;
#X obj -201 314 tabread4~ channelR;
#X obj -263 441 *~;
#X obj -193 451 *~;
#X obj 146 395 vsl 25 128 0 1 0 0 empty empty empty 0 -9 0 10 -204786
-1 -1 2433 1;
#X obj -46 231 snapshot~;
#X obj -46 209 metro 50;
#X floatatom -46 253 5 0 0 0 - - -;
#X obj -46 280 /;
#X obj -17 263 r sampleSize;
#X floatatom -46 309 5 0 0 0 - - -;
#X obj 118 284 hsl 205 25 0 1 0 0 empty empty empty -2 -8 0 10 -262144
-1 -1 1691 1;
#X obj -46 185 loadbang;
#X obj 118 326 hsl 205 25 -1 1 0 0 empty empty empty -2 -8 0 10 -232576
-1 -1 10290 1;
#X obj 115 129 bng 30 250 50 0 empty empty empty 17 7 0 10 -204786
-1 -1;
#X text 113 350 speed;
#X msg -42 79 0;
#X msg 6 80 0;
#X obj 151 129 bng 30 250 50 0 empty empty empty 17 7 0 10 -261234
-1 -1;
#X text 152 159 stop;
#X obj 187 129 bng 30 250 50 0 empty empty empty 17 7 0 10 -204800
-1 -1;
#X text 183 160 inicio;
#X text 115 159 reset;
#X obj 285 130 bng 40 250 50 0 empty empty empty 17 7 0 10 -228856
-1 -1;
#X obj 113 -26 r kb1b;
#X obj -248 307 r kb2b;
#X obj -188 336 r kb3b;
#X obj 262 -27 r kb4b;
#X obj 262 -4 autoscale -1 1;
#X obj -35 415 key;
#X floatatom -35 442 5 0 0 0 - - -;
#X obj -35 485 bng 15 250 50 0 empty empty empty 17 7 0 10 -262144
-1 -1;
#X obj -6 485 bng 15 250 50 0 empty empty empty 17 7 0 10 -262144 -1
-1;
#X obj 23 485 bng 15 250 50 0 empty empty empty 17 7 0 10 -262144 -1
-1;
#X obj -248 328 mtof;
#X obj -248 353 osc~;
#X obj -188 356 mtof;
#X obj -188 381 osc~;
#X obj -262 379 *~;
#X obj -202 407 *~;
#X obj 236 129 bng 40 250 50 0 empty empty empty 17 7 0 10 -262144
-1 -1;
#X obj 579 38 r~ looperfxL;
#X obj 681 35 r~ looperfxR;
#X obj 209 425 vsl 25 70 0 20 0 0 empty empty empty 0 -9 0 10 -262144
-1 -1 0 1;
#X obj 209 501 bng 25 250 50 0 empty empty empty 17 7 0 10 -228856
-1 -1;
#X msg 400 -39 0;
#X obj 248 425 vsl 25 70 0 127 0 0 empty empty empty 0 -9 0 10 -262144
-1 -1 0 1;
#X obj 248 501 bng 25 250 50 0 empty empty empty 17 7 0 10 -228856
-1 -1;
#X msg 460 -39 0;
#X text 207 532 trem;
#X text 247 531 ring;
#X obj 286 425 vsl 25 70 0 1 0 0 empty empty empty 0 -9 0 10 -262144
-1 -1 0 1;
#X obj 286 501 bng 25 250 50 0 empty empty empty 17 7 0 10 -228856
-1 -1;
#X msg 510 -39 0;
#X obj 286 394 tgl 25 0 empty empty empty 17 7 0 10 -173568 -1 -1 0
1;
#X obj 728 190 sel 0 1;
#X msg 608 244 0;
#X msg 631 244 1;
#X msg 668 244 0;
#X msg 690 244 1;
#X obj 771 35 r~ looperfxL;
#X obj 871 35 r~ looperfxR;
#X text 281 531 bkrush;
#X msg 858 244 0;
#X msg 881 244 1;
#X msg 928 244 0;
#X msg 950 244 1;
#X obj 603 315 *~ 1;
#X obj 643 315 *~ 1;
#X obj 863 315 *~ 0;
#X obj 903 315 *~ 0;
#X obj 771 104 bitkrush;
#X obj 870 104 bitkrush;
#X text 286 372 1/0;
#X obj 209 391 bng 25 250 50 0 empty empty empty 17 7 0 10 -262144
-1 -1;
#X text 206 370 clear;
#X text 145 376 gain;
#X obj 916 479 loadbang;
#X obj 916 506 delay 333;
#X obj 916 530 bng 15 250 50 0 empty empty empty 17 7 0 10 -262144
-1 -1;
#X obj 980 506 delay 666;
#X obj 891 485 bng 15 250 50 0 empty empty empty 17 7 0 10 -262144
-1 -1;
#X obj 980 531 bng 15 250 50 0 empty empty empty 17 7 0 10 -262144
-1 -1;
#X text 239 108 memory / file;
#X obj 176 446 bng 25 250 50 0 empty empty empty 17 7 0 10 -262144
-1 -1;
#X text 175 469 mute;
#X msg -70 581 0;
#X obj 777 83 *~ 2;
#X obj 883 81 *~ 2;
#X obj 206 -10 key;
#X floatatom 207 11 5 0 0 0 - - -;
#X obj -183 483 *~;
#X obj 115 394 vsl 20 128 0 8 0 0 empty empty empty 0 -9 0 10 -262144
-1 -1 174 1;
#X obj 207 31 sel 45;
#X obj 266 19 key;
#X floatatom 267 40 5 0 0 0 - - -;
#X obj 267 60 sel 241;
#X text 113 376 amp;
#X obj -35 464 sel 49 50 51;
#X msg -53 -27 open memo.wav;
#X obj 625 367 s~ lupeL;
#X obj 809 396 s~ lupeR;
#X obj 113 -1 / 127;
#X obj -209 533 dac~;
#X obj -231 579 s~ exclusiver;
#X obj -174 554 s~ exclusivel;
#X obj -235 502 *~;
#X obj 580 61 tremolo;
#X obj 680 61 tremolo;
#X obj 770 61 tremolo;
#X obj 870 61 tremolo;
#X obj 458 133 r mxw20;
#X obj 458 158 * 8;
#X obj 457 222 r mxw30;
#X obj 448 288 r mxw40;
#X obj 448 312 - 0.5;
#X obj 448 335 * 2;
#X obj 435 451 r mxw50;
#X obj 430 490 * 127;
#X obj 168 -57 r mxw70;
#X obj 240 -57 r mxw80;
#X connect 2 0 3 0;
#X connect 3 0 4 0;
#X connect 4 0 5 0;
#X connect 5 0 6 0;
#X connect 5 0 8 0;
#X connect 6 0 7 0;
#X connect 8 0 9 0;
#X connect 8 0 10 0;
#X connect 9 0 26 0;
#X connect 10 0 11 0;
#X connect 11 0 13 0;
#X connect 11 0 14 0;
#X connect 11 0 18 0;
#X connect 12 0 11 1;
#X connect 13 0 51 0;
#X connect 14 0 52 0;
#X connect 15 0 119 0;
#X connect 16 0 104 0;
#X connect 17 0 15 1;
#X connect 17 0 16 1;
#X connect 18 0 20 0;
#X connect 19 0 18 0;
#X connect 20 0 21 0;
#X connect 21 0 23 0;
#X connect 22 0 21 1;
#X connect 23 0 24 0;
#X connect 25 0 19 0;
#X connect 26 0 10 0;
#X connect 27 0 9 0;
#X connect 29 0 10 1;
#X connect 30 0 10 0;
#X connect 31 0 30 0;
#X connect 33 0 29 0;
#X connect 36 0 2 0;
#X connect 37 0 115 0;
#X connect 38 0 47 0;
#X connect 38 0 59 0;
#X connect 39 0 49 0;
#X connect 39 0 59 0;
#X connect 40 0 41 0;
#X connect 41 0 26 0;
#X connect 42 0 43 0;
#X connect 43 0 111 0;
#X connect 44 0 27 0;
#X connect 45 0 31 0;
#X connect 46 0 33 0;
#X connect 47 0 48 0;
#X connect 48 0 51 1;
#X connect 49 0 50 0;
#X connect 50 0 52 1;
#X connect 51 0 15 0;
#X connect 52 0 16 0;
#X connect 53 0 112 0;
#X connect 54 0 120 0;
#X connect 55 0 121 0;
#X connect 56 0 120 1;
#X connect 56 0 121 1;
#X connect 57 0 58 0;
#X connect 58 0 56 0;
#X connect 59 0 47 0;
#X connect 59 0 49 0;
#X connect 60 0 61 0;
#X connect 61 0 59 0;
#X connect 64 0 84 1;
#X connect 64 0 85 1;
#X connect 65 0 66 0;
#X connect 66 0 64 0;
#X connect 67 0 68 0;
#X connect 68 0 70 0;
#X connect 68 0 72 0;
#X connect 68 0 76 0;
#X connect 68 0 78 0;
#X connect 68 1 69 0;
#X connect 68 1 71 0;
#X connect 68 1 77 0;
#X connect 68 1 79 0;
#X connect 69 0 80 1;
#X connect 70 0 80 1;
#X connect 71 0 81 1;
#X connect 72 0 81 1;
#X connect 73 0 122 0;
#X connect 74 0 123 0;
#X connect 76 0 82 1;
#X connect 77 0 82 1;
#X connect 78 0 83 1;
#X connect 79 0 83 1;
#X connect 80 0 113 0;
#X connect 81 0 114 0;
#X connect 82 0 113 0;
#X connect 83 0 114 0;
#X connect 84 0 82 0;
#X connect 85 0 83 0;
#X connect 87 0 58 0;
#X connect 87 0 61 0;
#X connect 87 0 66 0;
#X connect 90 0 91 0;
#X connect 90 0 93 0;
#X connect 91 0 92 0;
#X connect 92 0 67 0;
#X connect 93 0 95 0;
#X connect 94 0 91 0;
#X connect 94 0 93 0;
#X connect 95 0 67 0;
#X connect 97 0 99 0;
#X connect 99 0 17 0;
#X connect 100 0 84 0;
#X connect 101 0 85 0;
#X connect 102 0 103 0;
#X connect 103 0 106 0;
#X connect 104 0 118 0;
#X connect 104 0 116 1;
#X connect 105 0 104 1;
#X connect 105 0 119 1;
#X connect 106 0 53 0;
#X connect 107 0 108 0;
#X connect 108 0 109 0;
#X connect 109 0 36 0;
#X connect 111 0 44 0;
#X connect 111 1 45 0;
#X connect 111 2 46 0;
#X connect 112 0 4 0;
#X connect 115 0 17 0;
#X connect 119 0 117 0;
#X connect 119 0 116 0;
#X connect 120 0 80 0;
#X connect 121 0 81 0;
#X connect 122 0 100 0;
#X connect 123 0 101 0;
#X connect 124 0 125 0;
#X connect 125 0 105 0;
#X connect 126 0 17 0;
#X connect 127 0 128 0;
#X connect 128 0 129 0;
#X connect 129 0 26 0;
#X connect 130 0 131 0;
#X connect 131 0 59 0;
#X connect 132 0 53 0;
#X connect 133 0 33 0;
#X coords 0 -1 1 1 240 470 1 100 100;
