#N canvas 44 28 1124 676 10;
#X floatatom 165 394 5 0 0 0 - - -;
#X obj 165 419 s mxw2;
#X obj 165 369 * 3;
#X text 165 94 perillas;
#X obj 16 29 r mx1;
#X obj 165 121 r mx2;
#X obj 254 122 r mx3;
#X floatatom 16 55 5 0 0 0 - - -;
#X floatatom 928 196 5 0 0 0 - - -;
#X obj 658 119 r mx7;
#X obj 928 118 r mx9;
#X obj 928 240 / 0.78;
#X obj 928 292 s mxw9;
#X obj 928 218 * 100;
#X obj 928 267 - 3;
#X obj 16 118 bng 15 250 50 0 empty empty empty 17 7 0 10 -262144 -1
-1;
#X obj 43 119 bng 15 250 50 0 empty empty empty 17 7 0 10 -262144 -1
-1;
#X obj 16 91 sel 1;
#X msg 203 203 10;
#X floatatom 165 290 5 0 0 0 - - -;
#X floatatom 204 345 5 0 0 0 - - -;
#X floatatom 165 346 5 0 0 0 - - -;
#X obj 165 254 +;
#X msg 169 203 0;
#X obj 165 317 moses 1.1;
#X obj 204 528 s mxw20;
#X floatatom 254 393 5 0 0 0 - - -;
#X obj 254 368 * 127;
#X obj 254 417 s mxw3;
#X msg 292 201 10;
#X floatatom 254 288 5 0 0 0 - - -;
#X floatatom 293 343 5 0 0 0 - - -;
#X floatatom 254 344 5 0 0 0 - - -;
#X obj 254 252 +;
#X msg 258 201 0;
#X obj 254 315 moses 1.1;
#X obj 293 526 s mxw30;
#X text 111 395 lvl 1;
#X floatatom 204 507 5 0 0 0 - - -;
#X floatatom 293 504 5 0 0 0 - - -;
#X obj 204 484 - 10;
#X obj 293 481 - 10;
#X text 15 3 i // o;
#X floatatom 342 392 5 0 0 0 - - -;
#X obj 342 367 * 127;
#X msg 380 200 10;
#X floatatom 342 287 5 0 0 0 - - -;
#X floatatom 381 342 5 0 0 0 - - -;
#X floatatom 342 343 5 0 0 0 - - -;
#X obj 342 251 +;
#X msg 346 200 0;
#X obj 342 314 moses 1.1;
#X floatatom 381 503 5 0 0 0 - - -;
#X obj 381 480 - 10;
#X obj 342 121 r mx4;
#X obj 342 416 s mxw4;
#X obj 381 525 s mxw40;
#X floatatom 434 394 5 0 0 0 - - -;
#X obj 434 369 * 127;
#X msg 472 202 10;
#X floatatom 434 289 5 0 0 0 - - -;
#X floatatom 473 344 5 0 0 0 - - -;
#X floatatom 434 345 5 0 0 0 - - -;
#X obj 434 253 +;
#X msg 438 202 0;
#X obj 434 316 moses 1.1;
#X floatatom 473 505 5 0 0 0 - - -;
#X obj 473 482 - 10;
#X obj 434 418 s mxw5;
#X obj 473 527 s mxw50;
#X msg 576 202 10;
#X floatatom 538 289 5 0 0 0 - - -;
#X floatatom 577 344 5 0 0 0 - - -;
#X floatatom 538 345 5 0 0 0 - - -;
#X obj 538 253 +;
#X msg 542 202 0;
#X obj 538 316 moses 1.1;
#X floatatom 577 505 5 0 0 0 - - -;
#X obj 577 482 - 10;
#X obj 538 367 * 2;
#X obj 538 418 s mxw6;
#X obj 538 123 r mx6;
#X obj 577 527 s mxw60;
#X text 158 508 lvl 2;
#X msg 707 209 10;
#X floatatom 658 272 5 0 0 0 - - -;
#X floatatom 709 333 5 0 0 0 - - -;
#X floatatom 658 323 5 0 0 0 - - -;
#X obj 658 236 +;
#X msg 673 209 0;
#X obj 658 299 moses 1.1;
#X floatatom 709 375 5 0 0 0 - - -;
#X obj 709 354 - 10;
#X obj 658 410 s mxw7;
#X obj 658 345 sel 1;
#X obj 658 388 bng 15 250 50 0 empty empty empty 17 7 0 10 -262144
-1 -1;
#X obj 709 400 sel 1;
#X obj 709 502 bng 15 250 50 0 empty empty empty 17 7 0 10 -262144
-1 -1;
#X obj 709 524 s mxw70;
#X floatatom 538 390 5 0 0 0 - - -;
#X msg 821 211 10;
#X floatatom 772 274 5 0 0 0 - - -;
#X floatatom 823 335 5 0 0 0 - - -;
#X floatatom 772 325 5 0 0 0 - - -;
#X obj 772 238 +;
#X msg 787 211 0;
#X obj 772 301 moses 1.1;
#X floatatom 823 377 5 0 0 0 - - -;
#X obj 823 356 - 10;
#X obj 772 347 sel 1;
#X obj 772 390 bng 15 250 50 0 empty empty empty 17 7 0 10 -262144
-1 -1;
#X obj 823 402 sel 1;
#X obj 823 504 bng 15 250 50 0 empty empty empty 17 7 0 10 -262144
-1 -1;
#X obj 772 121 r mx8;
#X obj 772 412 s mxw8;
#X obj 823 526 s mxw80;
#X text 658 90 boton;
#X text 925 88 luz;
#X obj 434 123 r mx5;
#X connect 0 0 1 0;
#X connect 2 0 0 0;
#X connect 4 0 7 0;
#X connect 5 0 22 0;
#X connect 6 0 33 0;
#X connect 7 0 17 0;
#X connect 8 0 13 0;
#X connect 9 0 88 0;
#X connect 10 0 8 0;
#X connect 11 0 14 0;
#X connect 13 0 11 0;
#X connect 14 0 12 0;
#X connect 15 0 23 0;
#X connect 15 0 34 0;
#X connect 15 0 50 0;
#X connect 15 0 64 0;
#X connect 15 0 75 0;
#X connect 15 0 89 0;
#X connect 15 0 105 0;
#X connect 16 0 18 0;
#X connect 16 0 29 0;
#X connect 16 0 45 0;
#X connect 16 0 59 0;
#X connect 16 0 70 0;
#X connect 16 0 84 0;
#X connect 16 0 100 0;
#X connect 17 0 15 0;
#X connect 17 1 16 0;
#X connect 18 0 22 1;
#X connect 19 0 24 0;
#X connect 20 0 40 0;
#X connect 21 0 2 0;
#X connect 22 0 19 0;
#X connect 23 0 22 1;
#X connect 24 0 21 0;
#X connect 24 1 20 0;
#X connect 26 0 28 0;
#X connect 27 0 26 0;
#X connect 29 0 33 1;
#X connect 30 0 35 0;
#X connect 31 0 41 0;
#X connect 32 0 27 0;
#X connect 33 0 30 0;
#X connect 34 0 33 1;
#X connect 35 0 32 0;
#X connect 35 1 31 0;
#X connect 38 0 25 0;
#X connect 39 0 36 0;
#X connect 40 0 38 0;
#X connect 41 0 39 0;
#X connect 43 0 55 0;
#X connect 44 0 43 0;
#X connect 45 0 49 1;
#X connect 46 0 51 0;
#X connect 47 0 53 0;
#X connect 48 0 44 0;
#X connect 49 0 46 0;
#X connect 50 0 49 1;
#X connect 51 0 48 0;
#X connect 51 1 47 0;
#X connect 52 0 56 0;
#X connect 53 0 52 0;
#X connect 54 0 49 0;
#X connect 57 0 68 0;
#X connect 58 0 57 0;
#X connect 59 0 63 1;
#X connect 60 0 65 0;
#X connect 61 0 67 0;
#X connect 62 0 58 0;
#X connect 63 0 60 0;
#X connect 64 0 63 1;
#X connect 65 0 62 0;
#X connect 65 1 61 0;
#X connect 66 0 69 0;
#X connect 67 0 66 0;
#X connect 70 0 74 1;
#X connect 71 0 76 0;
#X connect 72 0 78 0;
#X connect 73 0 79 0;
#X connect 74 0 71 0;
#X connect 75 0 74 1;
#X connect 76 0 73 0;
#X connect 76 1 72 0;
#X connect 77 0 82 0;
#X connect 78 0 77 0;
#X connect 79 0 99 0;
#X connect 81 0 74 0;
#X connect 84 0 88 1;
#X connect 85 0 90 0;
#X connect 86 0 92 0;
#X connect 87 0 94 0;
#X connect 88 0 85 0;
#X connect 89 0 88 1;
#X connect 90 0 87 0;
#X connect 90 1 86 0;
#X connect 91 0 96 0;
#X connect 92 0 91 0;
#X connect 94 0 95 0;
#X connect 95 0 93 0;
#X connect 96 0 97 0;
#X connect 97 0 98 0;
#X connect 99 0 80 0;
#X connect 100 0 104 1;
#X connect 101 0 106 0;
#X connect 102 0 108 0;
#X connect 103 0 109 0;
#X connect 104 0 101 0;
#X connect 105 0 104 1;
#X connect 106 0 103 0;
#X connect 106 1 102 0;
#X connect 107 0 111 0;
#X connect 108 0 107 0;
#X connect 109 0 110 0;
#X connect 110 0 114 0;
#X connect 111 0 112 0;
#X connect 112 0 115 0;
#X connect 113 0 104 0;
#X connect 118 0 63 0;
