#N canvas -8 -8 1366 685 10;
#X obj 46 33 r tmetro;
#X obj 19 52 metro;
#X obj 108 110 bng 53 250 50 0 empty empty empty 17 7 0 10 -4032 -1
-1;
#X obj 166 117 hradio 20 1 0 2 empty empty empty 0 -8 0 10 -262144
-1 -1 1;
#X obj 166 140 hradio 20 1 0 2 empty empty empty 0 -8 0 10 -262144
-1 -1 1;
#X obj 166 60 f;
#X obj 192 60 + 1;
#X obj 166 81 mod 2;
#X obj 166 17 key;
#X obj 166 39 sel 109;
#X obj 18 -18 sel 0 1;
#X msg 19 7 1;
#X msg 47 7 0;
#X obj 93 284 *~;
#X msg 138 216 0;
#X msg 108 216 0.5;
#X obj 94 310 *~;
#X obj 166 258 sel 0 1;
#X msg 167 283 1;
#X msg 195 283 0;
#X obj 95 356 *~;
#X obj 210 118 vsl 10 40 0 1 0 0 empty empty empty 0 -9 0 10 -262144
-1 -1 400 1;
#X obj 99 406 dac~;
#X obj 138 187 delay 60;
#X obj 93 257 phasor~ 333;
#X connect 0 0 1 1;
#X connect 1 0 2 0;
#X connect 2 0 15 0;
#X connect 2 0 23 0;
#X connect 3 0 10 0;
#X connect 4 0 17 0;
#X connect 5 0 7 0;
#X connect 5 0 6 0;
#X connect 6 0 5 1;
#X connect 7 0 3 0;
#X connect 8 0 9 0;
#X connect 9 0 5 0;
#X connect 10 0 12 0;
#X connect 10 1 11 0;
#X connect 11 0 1 0;
#X connect 12 0 1 0;
#X connect 13 0 16 0;
#X connect 14 0 13 1;
#X connect 15 0 13 1;
#X connect 16 0 20 0;
#X connect 17 0 19 0;
#X connect 17 1 18 0;
#X connect 18 0 16 1;
#X connect 19 0 16 1;
#X connect 20 0 22 0;
#X connect 20 0 22 1;
#X connect 21 0 20 1;
#X connect 23 0 14 0;
#X connect 24 0 13 0;
#X coords 0 -1 1 1 130 70 2 100 100;
