#N canvas 647 60 450 622 10;
#X obj 46 33 r tmetro;
#X obj 19 52 metro;
#X obj 108 110 bng 53 250 50 0 empty empty empty 17 7 0 10 -4032 -1
-1;
#X obj 168 110 hradio 25 1 0 2 empty empty empty 0 -8 0 10 -262144
-1 -1 1;
#X obj 168 138 hradio 25 1 0 2 empty empty empty 0 -8 0 10 -262144
-1 -1 1;
#X obj 168 53 f;
#X obj 194 53 + 1;
#X obj 168 74 mod 2;
#X obj 168 10 key;
#X obj 168 32 sel 109;
#X obj 18 -18 sel 0 1;
#X msg 19 7 1;
#X msg 47 7 0;
#X obj 93 284 *~;
#X msg 138 216 0;
#X obj 138 187 delay 300;
#X msg 108 216 0.5;
#X obj 94 310 *~;
#X obj 168 258 sel 0 1;
#X msg 169 283 1;
#X msg 197 283 0;
#X obj 95 342 dac~;
#X obj 93 257 phasor~ 437;
#X connect 0 0 1 1;
#X connect 1 0 2 0;
#X connect 2 0 16 0;
#X connect 2 0 15 0;
#X connect 3 0 10 0;
#X connect 4 0 18 0;
#X connect 5 0 7 0;
#X connect 5 0 6 0;
#X connect 6 0 5 1;
#X connect 7 0 3 0;
#X connect 8 0 9 0;
#X connect 9 0 5 0;
#X connect 10 0 12 0;
#X connect 10 1 11 0;
#X connect 11 0 1 0;
#X connect 12 0 1 0;
#X connect 13 0 17 0;
#X connect 14 0 13 1;
#X connect 15 0 14 0;
#X connect 16 0 13 1;
#X connect 17 0 21 0;
#X connect 17 0 21 1;
#X connect 18 0 20 0;
#X connect 18 1 19 0;
#X connect 19 0 17 1;
#X connect 20 0 17 1;
#X connect 22 0 13 0;
#X coords 0 -1 1 1 130 70 1 100 100;
