#N canvas 0 0 1362 685 10;
#X obj 667 128 inlet;
#X obj 652 150 +;
#X text 654 103 velocidad;
#X obj 652 433 outlet;
#X obj 225 85 r escala1;
#X floatatom 225 104 5 0 0 0 - - -;
#X obj 210 125 +;
#X floatatom 249 142 5 0 0 0 - - -;
#X obj 234 203 +;
#X floatatom 274 183 5 0 0 0 - - -;
#X obj 259 204 +;
#X floatatom 299 223 5 0 0 0 - - -;
#X obj 284 266 +;
#X floatatom 324 261 5 0 0 0 - - -;
#X obj 309 282 +;
#X floatatom 348 300 5 0 0 0 - - -;
#X obj 333 321 +;
#X obj 249 123 r escala1;
#X obj 274 164 r escala2;
#X obj 299 204 r escala2;
#X obj 249 164 + 1;
#X obj 299 243 + 1;
#X obj 324 242 r escala3;
#X obj 348 281 r escala4;
#X floatatom 373 338 5 0 0 0 - - -;
#X obj 358 389 +;
#X obj 373 358 + 1;
#X obj 373 319 r escala4;
#X floatatom 397 152 5 0 0 0 - - -;
#X obj 382 203 +;
#X obj 397 133 r escala5;
#X floatatom 423 191 5 0 0 0 - - -;
#X obj 408 242 +;
#X obj 423 211 + 1;
#X floatatom 447 230 5 0 0 0 - - -;
#X obj 432 281 +;
#X obj 423 172 r escala5;
#X obj 447 211 r escala6;
#X floatatom 472 268 5 0 0 0 - - -;
#X obj 457 319 +;
#X obj 472 288 + 1;
#X obj 472 249 r escala6;
#X floatatom 497 308 5 0 0 0 - - -;
#X obj 482 359 +;
#X obj 497 289 r escala7;
#X obj 210 448 outlet;
#X obj 210 23 key;
#X msg 531 380 0;
#X obj 846 64 key;
#X floatatom 846 83 5 0 0 0 - - -;
#X floatatom 521 161 5 0 0 0 - - -;
#X obj 506 222 +;
#X obj 521 142 r escala1;
#X obj 521 183 + 12;
#X obj 210 47 sel 97 119 115 101 100 102 116 103 121 104 117 106 107
112;
#X connect 0 0 1 1;
#X connect 1 0 3 0;
#X connect 4 0 5 0;
#X connect 5 0 6 1;
#X connect 6 0 45 0;
#X connect 7 0 20 0;
#X connect 8 0 45 0;
#X connect 9 0 10 1;
#X connect 10 0 45 0;
#X connect 11 0 21 0;
#X connect 12 0 45 0;
#X connect 13 0 14 1;
#X connect 14 0 45 0;
#X connect 15 0 16 1;
#X connect 16 0 45 0;
#X connect 17 0 7 0;
#X connect 18 0 9 0;
#X connect 19 0 11 0;
#X connect 20 0 8 1;
#X connect 21 0 12 1;
#X connect 22 0 13 0;
#X connect 23 0 15 0;
#X connect 24 0 26 0;
#X connect 25 0 45 0;
#X connect 26 0 25 1;
#X connect 27 0 24 0;
#X connect 28 0 29 1;
#X connect 29 0 45 0;
#X connect 30 0 28 0;
#X connect 31 0 33 0;
#X connect 32 0 45 0;
#X connect 33 0 32 1;
#X connect 34 0 35 1;
#X connect 35 0 45 0;
#X connect 36 0 31 0;
#X connect 37 0 34 0;
#X connect 38 0 40 0;
#X connect 39 0 45 0;
#X connect 40 0 39 1;
#X connect 41 0 38 0;
#X connect 42 0 43 1;
#X connect 43 0 45 0;
#X connect 44 0 42 0;
#X connect 46 0 54 0;
#X connect 47 0 45 0;
#X connect 48 0 49 0;
#X connect 50 0 53 0;
#X connect 51 0 45 0;
#X connect 52 0 50 0;
#X connect 53 0 51 1;
#X connect 54 0 6 0;
#X connect 54 0 1 0;
#X connect 54 1 8 0;
#X connect 54 1 1 0;
#X connect 54 2 10 0;
#X connect 54 2 1 0;
#X connect 54 3 12 0;
#X connect 54 3 1 0;
#X connect 54 4 14 0;
#X connect 54 4 1 0;
#X connect 54 5 16 0;
#X connect 54 5 1 0;
#X connect 54 6 25 0;
#X connect 54 6 1 0;
#X connect 54 7 29 0;
#X connect 54 7 1 0;
#X connect 54 8 32 0;
#X connect 54 8 1 0;
#X connect 54 9 35 0;
#X connect 54 9 1 0;
#X connect 54 10 39 0;
#X connect 54 10 1 0;
#X connect 54 11 43 0;
#X connect 54 11 1 0;
#X connect 54 12 51 0;
#X connect 54 13 47 0;
