#N canvas 501 92 955 676 10;
#X text 72 29 Decidir notas en el acorde;
#X obj 124 53 bng 15 250 50 0 empty empty empty 17 7 0 10 -262144 -1
-1;
#X floatatom 124 132 5 0 0 0 - - -;
#X obj 124 104 random;
#X text 218 69 recive control here;
#X obj 216 112 bng 15 250 50 0 empty empty empty 17 7 0 10 -262144
-1 -1;
#X obj 236 113 bng 15 250 50 0 empty empty empty 17 7 0 10 -262144
-1 -1;
#X obj 256 113 bng 15 250 50 0 empty empty empty 17 7 0 10 -262144
-1 -1;
#X obj 276 113 bng 15 250 50 0 empty empty empty 17 7 0 10 -262144
-1 -1;
#X obj 296 113 bng 15 250 50 0 empty empty empty 17 7 0 10 -262144
-1 -1;
#X obj 316 113 bng 15 250 50 0 empty empty empty 17 7 0 10 -262144
-1 -1;
#X obj 336 114 bng 15 250 50 0 empty empty empty 17 7 0 10 -262144
-1 -1;
#X obj 216 91 sel 0 18 36 54 72 90 108;
#X obj 216 55 r kb11b;
#X msg 216 132 2;
#X msg 236 152 3;
#X msg 256 132 4;
#X msg 276 152 5;
#X msg 296 132 6;
#X msg 316 152 7;
#X msg 336 132 8;
#X text 72 189 Decidir intervalos en el acorde;
#X text 73 205 Primero los nominales (3 \, 5);
#X obj 103 346 +;
#X obj 202 316 random 2;
#X floatatom 202 342 5 0 0 0 - - -;
#X obj 202 295 bng 15 250 50 0 empty empty empty 17 7 0 10 -262144
-1 -1;
#X floatatom 103 374 5 0 0 0 - - -;
#X obj 202 363 sel 0 1;
#X obj 202 385 bng 15 250 50 0 empty empty empty 17 7 0 10 -262144
-1 -1;
#X obj 221 385 bng 15 250 50 0 empty empty empty 17 7 0 10 -262144
-1 -1;
#X obj 69 301 notein;
#X text 392 29 Velocidad de cálculos;
#X obj 435 95 metro;
#X obj 435 116 bng 15 250 50 0 empty empty empty 17 7 0 10 -262144
-1 -1;
#X msg 406 69 0;
#X msg 435 69 1;
#X floatatom 476 70 5 0 0 0 - - -;
#X obj 435 135 s velcalc;
#X obj 202 274 r velcalc;
#X obj 333 346 +;
#X floatatom 432 342 5 0 0 0 - - -;
#X obj 432 295 bng 15 250 50 0 empty empty empty 17 7 0 10 -262144
-1 -1;
#X floatatom 333 374 5 0 0 0 - - -;
#X obj 432 385 bng 15 250 50 0 empty empty empty 17 7 0 10 -262144
-1 -1;
#X obj 449 385 bng 15 250 50 0 empty empty empty 17 7 0 10 -262144
-1 -1;
#X obj 432 274 r velcalc;
#X text 72 233 Primera tercera \, mayor o menor:;
#X floatatom 69 445 5 0 0 0 - - -;
#X floatatom 103 445 5 0 0 0 - - -;
#X floatatom 137 445 5 0 0 0 - - -;
#X text 66 421 Acorde nominal;
#X text 292 233 Segunda tercera \, justa \, aum \, dim;
#X obj 432 316 random 3;
#X msg 348 318 6;
#X msg 369 318 7;
#X msg 383 318 8;
#X obj 466 385 bng 15 250 50 0 empty empty empty 17 7 0 10 -262144
-1 -1;
#X obj 300 318 notein;
#X obj 432 363 sel 0 1 2;
#X msg 118 318 3;
#X msg 139 318 4;
#X floatatom 67 618 5 0 0 0 - - -;
#X floatatom 112 619 5 0 0 0 - - -;
#X obj 83 648 - 12;
#X obj 67 589 moses 30;
#X obj 118 647 moses 60;
#X floatatom 118 672 5 0 0 0 - - -;
#X floatatom 83 726 5 0 0 0 - - -;
#X obj 118 695 - 24;
#X floatatom 118 725 5 0 0 0 - - -;
#X text 582 1175 hasta abajo c:;
#X obj 68 750 +;
#X floatatom 68 777 5 0 0 0 - - -;
#X obj 118 750 +;
#X floatatom 118 781 5 0 0 0 - - -;
#X msg -20 740 0;
#X msg -3 731 0;
#X msg 14 742 0;
#X floatatom -20 657 5 0 0 0 - - -;
#X obj -20 610 bng 15 250 50 0 empty empty empty 17 7 0 10 -262144
-1 -1;
#X obj -20 709 bng 15 250 50 0 empty empty empty 17 7 0 10 -262144
-1 -1;
#X obj -3 709 bng 15 250 50 0 empty empty empty 17 7 0 10 -262144 -1
-1;
#X obj -20 589 r velcalc;
#X obj 14 709 bng 15 250 50 0 empty empty empty 17 7 0 10 -262144 -1
-1;
#X obj -20 678 sel 0 1 2;
#X floatatom 68 797 5 0 0 0 - - -;
#X obj 69 466 s rnote1;
#X obj 103 489 s rnote2;
#X obj 137 468 s rnote3;
#X text 643 25 resultado final;
#X floatatom 647 84 5 0 0 0 - - -;
#X floatatom 699 83 5 0 0 0 - - -;
#X floatatom 753 83 5 0 0 0 - - -;
#X obj 629 52 r rnote1;
#X obj 689 52 r rnote2;
#X obj 749 52 r rnote3;
#X obj -20 631 random 3;
#X obj 68 821 s rnote4;
#X obj 627 114 r rnote4;
#X floatatom 650 146 5 0 0 0 - - -;
#X obj 67 566 r rnote1;
#X floatatom 287 617 5 0 0 0 - - -;
#X floatatom 332 619 5 0 0 0 - - -;
#X obj 303 648 - 12;
#X obj 287 589 moses 30;
#X obj 338 647 moses 60;
#X floatatom 338 672 5 0 0 0 - - -;
#X floatatom 303 726 5 0 0 0 - - -;
#X obj 338 695 - 24;
#X floatatom 338 725 5 0 0 0 - - -;
#X obj 288 750 +;
#X floatatom 288 777 5 0 0 0 - - -;
#X obj 338 750 +;
#X floatatom 338 781 5 0 0 0 - - -;
#X msg 200 740 0;
#X msg 217 731 0;
#X msg 234 742 0;
#X floatatom 200 657 5 0 0 0 - - -;
#X obj 200 610 bng 15 250 50 0 empty empty empty 17 7 0 10 -262144
-1 -1;
#X obj 200 709 bng 15 250 50 0 empty empty empty 17 7 0 10 -262144
-1 -1;
#X obj 217 709 bng 15 250 50 0 empty empty empty 17 7 0 10 -262144
-1 -1;
#X obj 200 589 r velcalc;
#X obj 234 709 bng 15 250 50 0 empty empty empty 17 7 0 10 -262144
-1 -1;
#X obj 200 678 sel 0 1 2;
#X floatatom 288 797 5 0 0 0 - - -;
#X obj 200 631 random 3;
#X floatatom 517 618 5 0 0 0 - - -;
#X floatatom 562 619 5 0 0 0 - - -;
#X obj 533 648 - 12;
#X obj 517 589 moses 30;
#X obj 568 647 moses 60;
#X floatatom 568 672 5 0 0 0 - - -;
#X floatatom 533 726 5 0 0 0 - - -;
#X obj 568 695 - 24;
#X floatatom 568 725 5 0 0 0 - - -;
#X obj 518 750 +;
#X floatatom 518 777 5 0 0 0 - - -;
#X obj 568 750 +;
#X floatatom 568 781 5 0 0 0 - - -;
#X obj 502 716 +;
#X msg 430 740 0;
#X msg 447 731 0;
#X msg 464 742 0;
#X floatatom 430 657 5 0 0 0 - - -;
#X obj 430 610 bng 15 250 50 0 empty empty empty 17 7 0 10 -262144
-1 -1;
#X obj 430 709 bng 15 250 50 0 empty empty empty 17 7 0 10 -262144
-1 -1;
#X obj 447 709 bng 15 250 50 0 empty empty empty 17 7 0 10 -262144
-1 -1;
#X obj 430 589 r velcalc;
#X obj 464 709 bng 15 250 50 0 empty empty empty 17 7 0 10 -262144
-1 -1;
#X obj 430 678 sel 0 1 2;
#X floatatom 518 797 5 0 0 0 - - -;
#X obj 430 631 random 3;
#X obj 287 566 r rnote2;
#X obj 517 566 r rnote3;
#X text 158 531 Generar intervalo -12 o -24;
#X floatatom 710 146 5 0 0 0 - - -;
#X obj 687 114 r rnote5;
#X floatatom 770 146 5 0 0 0 - - -;
#X obj 747 114 r rnote6;
#X obj 288 821 s rnote5;
#X obj 518 821 s rnote6;
#X obj -26 329 r notec;
#X obj 528 -25 inlet;
#X obj 570 -25 inlet;
#X obj 612 -25 inlet;
#X connect 1 0 3 0;
#X connect 3 0 2 0;
#X connect 5 0 14 0;
#X connect 6 0 15 0;
#X connect 7 0 16 0;
#X connect 8 0 17 0;
#X connect 9 0 18 0;
#X connect 10 0 19 0;
#X connect 11 0 20 0;
#X connect 12 0 5 0;
#X connect 12 1 6 0;
#X connect 12 2 7 0;
#X connect 12 3 8 0;
#X connect 12 4 9 0;
#X connect 12 5 10 0;
#X connect 12 6 11 0;
#X connect 13 0 12 0;
#X connect 14 0 3 1;
#X connect 15 0 3 1;
#X connect 16 0 3 1;
#X connect 17 0 3 1;
#X connect 18 0 3 1;
#X connect 19 0 3 1;
#X connect 20 0 3 1;
#X connect 23 0 27 0;
#X connect 24 0 25 0;
#X connect 25 0 28 0;
#X connect 26 0 24 0;
#X connect 27 0 49 0;
#X connect 28 0 29 0;
#X connect 28 1 30 0;
#X connect 29 0 60 0;
#X connect 30 0 61 0;
#X connect 31 0 23 0;
#X connect 31 0 48 0;
#X connect 33 0 34 0;
#X connect 34 0 38 0;
#X connect 35 0 33 0;
#X connect 36 0 33 0;
#X connect 37 0 33 1;
#X connect 39 0 26 0;
#X connect 40 0 43 0;
#X connect 41 0 59 0;
#X connect 42 0 53 0;
#X connect 43 0 50 0;
#X connect 44 0 54 0;
#X connect 45 0 55 0;
#X connect 46 0 42 0;
#X connect 48 0 87 0;
#X connect 49 0 88 0;
#X connect 50 0 89 0;
#X connect 53 0 41 0;
#X connect 54 0 40 1;
#X connect 55 0 40 1;
#X connect 56 0 40 1;
#X connect 57 0 56 0;
#X connect 58 0 40 0;
#X connect 59 0 44 0;
#X connect 59 1 45 0;
#X connect 59 2 57 0;
#X connect 60 0 23 1;
#X connect 61 0 23 1;
#X connect 63 0 64 0;
#X connect 63 0 66 0;
#X connect 64 0 68 0;
#X connect 65 0 62 0;
#X connect 65 1 63 0;
#X connect 66 0 67 0;
#X connect 67 0 69 0;
#X connect 68 0 72 1;
#X connect 69 0 70 0;
#X connect 70 0 74 1;
#X connect 72 0 73 0;
#X connect 73 0 86 0;
#X connect 74 0 75 0;
#X connect 75 0 86 0;
#X connect 76 0 72 0;
#X connect 77 0 74 0;
#X connect 79 0 85 0;
#X connect 80 0 97 0;
#X connect 81 0 76 0;
#X connect 82 0 77 0;
#X connect 83 0 80 0;
#X connect 84 0 78 0;
#X connect 85 0 81 0;
#X connect 85 1 82 0;
#X connect 85 2 84 0;
#X connect 86 0 98 0;
#X connect 94 0 91 0;
#X connect 95 0 92 0;
#X connect 96 0 93 0;
#X connect 97 0 79 0;
#X connect 99 0 100 0;
#X connect 101 0 65 0;
#X connect 103 0 104 0;
#X connect 103 0 106 0;
#X connect 104 0 108 0;
#X connect 105 0 102 0;
#X connect 105 1 103 0;
#X connect 106 0 107 0;
#X connect 107 0 109 0;
#X connect 108 0 111 1;
#X connect 109 0 110 0;
#X connect 110 0 113 1;
#X connect 111 0 112 0;
#X connect 112 0 125 0;
#X connect 113 0 114 0;
#X connect 114 0 125 0;
#X connect 115 0 111 0;
#X connect 116 0 113 0;
#X connect 118 0 124 0;
#X connect 119 0 126 0;
#X connect 120 0 115 0;
#X connect 121 0 116 0;
#X connect 122 0 119 0;
#X connect 123 0 117 0;
#X connect 124 0 120 0;
#X connect 124 1 121 0;
#X connect 124 2 123 0;
#X connect 125 0 160 0;
#X connect 126 0 118 0;
#X connect 127 0 140 1;
#X connect 128 0 129 0;
#X connect 128 0 131 0;
#X connect 129 0 133 0;
#X connect 130 0 127 0;
#X connect 130 1 128 0;
#X connect 131 0 132 0;
#X connect 132 0 134 0;
#X connect 133 0 136 1;
#X connect 134 0 135 0;
#X connect 135 0 138 1;
#X connect 136 0 137 0;
#X connect 137 0 151 0;
#X connect 138 0 139 0;
#X connect 139 0 151 0;
#X connect 141 0 136 0;
#X connect 142 0 138 0;
#X connect 143 0 140 0;
#X connect 144 0 150 0;
#X connect 145 0 152 0;
#X connect 146 0 141 0;
#X connect 147 0 142 0;
#X connect 148 0 145 0;
#X connect 149 0 143 0;
#X connect 150 0 146 0;
#X connect 150 1 147 0;
#X connect 150 2 149 0;
#X connect 151 0 161 0;
#X connect 152 0 144 0;
#X connect 153 0 105 0;
#X connect 154 0 130 0;
#X connect 157 0 156 0;
#X connect 159 0 158 0;
#X connect 162 0 23 0;
#X connect 162 0 40 0;
#X connect 162 0 48 0;
#X connect 163 0 35 0;
#X connect 164 0 36 0;
#X connect 165 0 37 0;
