#N canvas 276 295 1301 686 10;
#X obj 256 111 musik;
#X floatatom 34 108 5 0 0 0 - - -;
#X obj 37 88 hsl 128 15 0 127 0 0 empty empty empty -2 -8 0 10 -262144
-1 -1 9800 1;
#X obj 235 84 bng 15 250 50 0 empty empty empty 17 7 0 10 -262144 -1
-1;
#X obj 269 84 bng 15 250 50 0 empty empty empty 17 7 0 10 -262144 -1
-1;
#X floatatom 307 83 5 0 0 0 - - -;
#X obj 81 130 bng 15 250 50 0 empty empty empty 17 7 0 10 -262144 -1
-1;
#X obj 81 109 metro;
#X floatatom 122 108 5 0 0 0 - - -;
#X obj 67 178 +;
#X obj 77 150 random 7;
#X floatatom 67 201 5 0 0 0 - - -;
#X obj 67 222 s notec;
#X msg 123 129 1;
#X obj 81 555 random 6;
#X obj 81 572 sel 0;
#X obj 131 572 sel 1;
#X obj 181 572 sel 2;
#X obj 231 572 sel 3;
#X obj 281 572 sel 4;
#X obj 331 572 sel 5;
#X text 632 854 fondo;
#X obj 48 617 tiptip;
#X obj 48 596 r notec;
#X floatatom 48 641 5 0 0 0 - - -;
#X obj 98 616 tiptip;
#X floatatom 98 640 5 0 0 0 - - -;
#X obj 98 595 r rnote2;
#X obj 148 616 tiptip;
#X floatatom 148 640 5 0 0 0 - - -;
#X obj 198 616 tiptip;
#X floatatom 198 640 5 0 0 0 - - -;
#X obj 148 595 r rnote3;
#X obj 198 595 r rnote4;
#X obj 248 616 tiptip;
#X floatatom 248 640 5 0 0 0 - - -;
#X obj 248 595 r rnote5;
#X obj 298 616 tiptip;
#X floatatom 298 640 5 0 0 0 - - -;
#X obj 298 595 r rnote6;
#X obj 81 516 r velcalc;
#X obj 81 537 bng 15 250 50 0 empty empty empty 17 7 0 10 -262144 -1
-1;
#X floatatom 169 671 5 0 0 0 - - -;
#X obj 401 555 random 6;
#X obj 401 572 sel 0;
#X obj 451 572 sel 1;
#X obj 501 572 sel 2;
#X obj 551 572 sel 3;
#X obj 601 572 sel 4;
#X obj 651 572 sel 5;
#X obj 368 596 r notec;
#X floatatom 368 641 5 0 0 0 - - -;
#X floatatom 418 640 5 0 0 0 - - -;
#X obj 418 595 r rnote2;
#X floatatom 468 640 5 0 0 0 - - -;
#X floatatom 518 640 5 0 0 0 - - -;
#X obj 468 595 r rnote3;
#X obj 518 595 r rnote4;
#X floatatom 568 640 5 0 0 0 - - -;
#X obj 568 595 r rnote5;
#X floatatom 618 640 5 0 0 0 - - -;
#X obj 618 595 r rnote6;
#X obj 401 516 r velcalc;
#X obj 401 537 bng 15 250 50 0 empty empty empty 17 7 0 10 -262144
-1 -1;
#X floatatom 489 671 5 0 0 0 - - -;
#X obj 368 617 tiptip5;
#X obj 418 616 tiptip5;
#X obj 468 616 tiptip5;
#X obj 518 616 tiptip5;
#X obj 568 616 tiptip5;
#X obj 618 616 tiptip5;
#X obj 741 555 random 6;
#X obj 741 572 sel 0;
#X obj 791 572 sel 1;
#X obj 841 572 sel 2;
#X obj 891 572 sel 3;
#X obj 941 572 sel 4;
#X obj 991 572 sel 5;
#X obj 708 596 r notec;
#X floatatom 708 641 5 0 0 0 - - -;
#X floatatom 758 640 5 0 0 0 - - -;
#X obj 758 595 r rnote2;
#X floatatom 808 640 5 0 0 0 - - -;
#X floatatom 858 640 5 0 0 0 - - -;
#X obj 808 595 r rnote3;
#X obj 858 595 r rnote4;
#X floatatom 908 640 5 0 0 0 - - -;
#X obj 908 595 r rnote5;
#X floatatom 958 640 5 0 0 0 - - -;
#X obj 958 595 r rnote6;
#X obj 741 516 r velcalc;
#X obj 741 537 bng 15 250 50 0 empty empty empty 17 7 0 10 -262144
-1 -1;
#X floatatom 829 671 5 0 0 0 - - -;
#X obj 708 617 tiptip89;
#X obj 758 616 tiptip89;
#X obj 808 616 tiptip89;
#X obj 858 616 tiptip89;
#X obj 908 616 tiptip89;
#X obj 958 616 tiptip89;
#X obj 1071 555 random 6;
#X obj 1071 572 sel 0;
#X obj 1121 572 sel 1;
#X obj 1171 572 sel 2;
#X obj 1221 572 sel 3;
#X obj 1271 572 sel 4;
#X obj 1321 572 sel 5;
#X obj 1038 596 r notec;
#X floatatom 1038 641 5 0 0 0 - - -;
#X floatatom 1088 640 5 0 0 0 - - -;
#X obj 1088 595 r rnote2;
#X floatatom 1138 640 5 0 0 0 - - -;
#X floatatom 1188 640 5 0 0 0 - - -;
#X obj 1138 595 r rnote3;
#X obj 1188 595 r rnote4;
#X floatatom 1238 640 5 0 0 0 - - -;
#X obj 1238 595 r rnote5;
#X floatatom 1288 640 5 0 0 0 - - -;
#X obj 1288 595 r rnote6;
#X obj 1071 516 r velcalc;
#X obj 1071 537 bng 15 250 50 0 empty empty empty 17 7 0 10 -262144
-1 -1;
#X floatatom 1159 671 5 0 0 0 - - -;
#X obj 1038 617 tiptip7;
#X obj 1088 616 tiptip7;
#X obj 1138 616 tiptip7;
#X obj 1188 616 tiptip7;
#X obj 1238 616 tiptip7;
#X obj 1288 616 tiptip7;
#X obj 169 697 s rnote11;
#X obj 489 697 s rnote12;
#X obj 829 697 s rnote13;
#X obj 1159 697 s rnote14;
#X floatatom 543 165 5 0 0 0 - - -;
#X floatatom 543 218 5 0 0 0 - - -;
#X obj 543 196 clip 12 100;
#X floatatom 623 165 5 0 0 0 - - -;
#X floatatom 623 218 5 0 0 0 - - -;
#X obj 623 196 clip 12 100;
#X floatatom 703 165 5 0 0 0 - - -;
#X floatatom 703 218 5 0 0 0 - - -;
#X obj 703 196 clip 12 100;
#X floatatom 783 165 5 0 0 0 - - -;
#X floatatom 783 218 5 0 0 0 - - -;
#X obj 783 196 clip 12 100;
#X floatatom 543 305 5 0 0 0 - - -;
#X obj 543 284 r rnote11;
#X floatatom 543 358 5 0 0 0 - - -;
#X obj 543 336 clip 12 100;
#X floatatom 623 305 5 0 0 0 - - -;
#X floatatom 623 358 5 0 0 0 - - -;
#X obj 623 336 clip 12 100;
#X floatatom 703 305 5 0 0 0 - - -;
#X floatatom 703 358 5 0 0 0 - - -;
#X obj 703 336 clip 12 100;
#X floatatom 783 305 5 0 0 0 - - -;
#X floatatom 783 358 5 0 0 0 - - -;
#X obj 783 336 clip 12 100;
#X floatatom 863 165 5 0 0 0 - - -;
#X floatatom 863 218 5 0 0 0 - - -;
#X obj 863 196 clip 12 100;
#X floatatom 943 165 5 0 0 0 - - -;
#X floatatom 943 218 5 0 0 0 - - -;
#X obj 943 196 clip 12 100;
#X obj 543 144 r notec;
#X obj 623 144 r rnote2;
#X obj 703 144 r rnote3;
#X obj 783 144 r rnote4;
#X obj 863 144 r rnote5;
#X obj 943 144 r rnote6;
#X obj 623 284 r rnote12;
#X obj 703 284 r rnote13;
#X obj 783 284 r rnote14;
#X obj 543 239 s rn1ra;
#X obj 623 239 s rn3ra;
#X obj 703 239 s rn5ta;
#X obj 783 239 s rn81;
#X obj 863 239 s rn82;
#X obj 943 239 s rn83;
#X obj 543 379 s rn2da;
#X obj 623 379 s rn4ta;
#X obj 703 379 s rn6ta;
#X obj 783 379 s rn7ma;
#X obj 229 41 inlet;
#X obj 269 41 inlet;
#X obj 309 41 inlet;
#X obj 34 64 r ctltest;
#X connect 1 0 9 0;
#X connect 2 0 1 0;
#X connect 3 0 0 0;
#X connect 4 0 0 1;
#X connect 5 0 0 2;
#X connect 6 0 10 0;
#X connect 6 0 1 0;
#X connect 7 0 6 0;
#X connect 8 0 7 1;
#X connect 9 0 11 0;
#X connect 10 0 9 1;
#X connect 11 0 12 0;
#X connect 13 0 7 0;
#X connect 14 0 15 0;
#X connect 14 0 16 0;
#X connect 14 0 17 0;
#X connect 14 0 18 0;
#X connect 14 0 19 0;
#X connect 14 0 20 0;
#X connect 15 0 22 1;
#X connect 16 0 25 1;
#X connect 17 0 28 1;
#X connect 18 0 30 1;
#X connect 19 0 34 1;
#X connect 20 0 37 1;
#X connect 22 0 24 0;
#X connect 23 0 22 0;
#X connect 24 0 42 0;
#X connect 25 0 26 0;
#X connect 26 0 42 0;
#X connect 27 0 25 0;
#X connect 28 0 29 0;
#X connect 29 0 42 0;
#X connect 30 0 31 0;
#X connect 31 0 42 0;
#X connect 32 0 28 0;
#X connect 33 0 30 0;
#X connect 34 0 35 0;
#X connect 35 0 42 0;
#X connect 36 0 34 0;
#X connect 37 0 38 0;
#X connect 38 0 42 0;
#X connect 39 0 37 0;
#X connect 40 0 41 0;
#X connect 41 0 14 0;
#X connect 42 0 127 0;
#X connect 43 0 44 0;
#X connect 43 0 45 0;
#X connect 43 0 46 0;
#X connect 43 0 47 0;
#X connect 43 0 48 0;
#X connect 43 0 49 0;
#X connect 44 0 65 1;
#X connect 45 0 66 1;
#X connect 46 0 67 1;
#X connect 47 0 68 1;
#X connect 48 0 69 1;
#X connect 49 0 70 1;
#X connect 50 0 65 0;
#X connect 51 0 64 0;
#X connect 52 0 64 0;
#X connect 53 0 66 0;
#X connect 54 0 64 0;
#X connect 55 0 64 0;
#X connect 56 0 67 0;
#X connect 57 0 68 0;
#X connect 58 0 64 0;
#X connect 59 0 69 0;
#X connect 60 0 64 0;
#X connect 61 0 70 0;
#X connect 62 0 63 0;
#X connect 63 0 43 0;
#X connect 64 0 128 0;
#X connect 65 0 51 0;
#X connect 66 0 52 0;
#X connect 67 0 54 0;
#X connect 68 0 55 0;
#X connect 69 0 58 0;
#X connect 70 0 60 0;
#X connect 71 0 72 0;
#X connect 71 0 73 0;
#X connect 71 0 74 0;
#X connect 71 0 75 0;
#X connect 71 0 76 0;
#X connect 71 0 77 0;
#X connect 72 0 93 1;
#X connect 73 0 94 1;
#X connect 74 0 95 1;
#X connect 75 0 96 1;
#X connect 76 0 97 1;
#X connect 77 0 98 1;
#X connect 78 0 93 0;
#X connect 79 0 92 0;
#X connect 80 0 92 0;
#X connect 81 0 94 0;
#X connect 82 0 92 0;
#X connect 83 0 92 0;
#X connect 84 0 95 0;
#X connect 85 0 96 0;
#X connect 86 0 92 0;
#X connect 87 0 97 0;
#X connect 88 0 92 0;
#X connect 89 0 98 0;
#X connect 90 0 91 0;
#X connect 91 0 71 0;
#X connect 92 0 129 0;
#X connect 93 0 79 0;
#X connect 94 0 80 0;
#X connect 95 0 82 0;
#X connect 96 0 83 0;
#X connect 97 0 86 0;
#X connect 98 0 88 0;
#X connect 99 0 100 0;
#X connect 99 0 101 0;
#X connect 99 0 102 0;
#X connect 99 0 103 0;
#X connect 99 0 104 0;
#X connect 99 0 105 0;
#X connect 100 0 121 1;
#X connect 101 0 122 1;
#X connect 102 0 123 1;
#X connect 103 0 124 1;
#X connect 104 0 125 1;
#X connect 105 0 126 1;
#X connect 106 0 121 0;
#X connect 107 0 120 0;
#X connect 108 0 120 0;
#X connect 109 0 122 0;
#X connect 110 0 120 0;
#X connect 111 0 120 0;
#X connect 112 0 123 0;
#X connect 113 0 124 0;
#X connect 114 0 120 0;
#X connect 115 0 125 0;
#X connect 116 0 120 0;
#X connect 117 0 126 0;
#X connect 118 0 119 0;
#X connect 119 0 99 0;
#X connect 120 0 130 0;
#X connect 121 0 107 0;
#X connect 122 0 108 0;
#X connect 123 0 110 0;
#X connect 124 0 111 0;
#X connect 125 0 114 0;
#X connect 126 0 116 0;
#X connect 131 0 133 0;
#X connect 132 0 171 0;
#X connect 133 0 132 0;
#X connect 134 0 136 0;
#X connect 135 0 172 0;
#X connect 136 0 135 0;
#X connect 137 0 139 0;
#X connect 138 0 173 0;
#X connect 139 0 138 0;
#X connect 140 0 142 0;
#X connect 141 0 174 0;
#X connect 142 0 141 0;
#X connect 143 0 146 0;
#X connect 144 0 143 0;
#X connect 145 0 177 0;
#X connect 146 0 145 0;
#X connect 147 0 149 0;
#X connect 148 0 178 0;
#X connect 149 0 148 0;
#X connect 150 0 152 0;
#X connect 151 0 179 0;
#X connect 152 0 151 0;
#X connect 153 0 155 0;
#X connect 154 0 180 0;
#X connect 155 0 154 0;
#X connect 156 0 158 0;
#X connect 157 0 175 0;
#X connect 158 0 157 0;
#X connect 159 0 161 0;
#X connect 160 0 176 0;
#X connect 161 0 160 0;
#X connect 162 0 131 0;
#X connect 163 0 134 0;
#X connect 164 0 137 0;
#X connect 165 0 140 0;
#X connect 166 0 156 0;
#X connect 167 0 159 0;
#X connect 168 0 147 0;
#X connect 169 0 150 0;
#X connect 170 0 153 0;
#X connect 181 0 3 0;
#X connect 182 0 4 0;
#X connect 183 0 5 0;
#X connect 184 0 2 0;
