#N canvas 797 317 465 352 10;
#X obj 117 129 tgl 25 0 empty empty empty 17 7 0 10 -4032 -1 -1 0 1
;
#X obj 117 1 key;
#X floatatom 117 23 5 0 0 0 - - -;
#X obj 117 204 sel 0;
#X obj 160 204 sel 1;
#X obj 117 225 bng 15 250 50 0 empty empty empty 17 7 0 10 -262144
-1 -1;
#X obj 160 225 bng 15 250 50 0 empty empty empty 17 7 0 10 -262144
-1 -1;
#X obj 117 247 timer;
#X floatatom 117 269 5 0 0 0 - - -;
#X obj 117 291 expr (60000./$f1);
#X floatatom 162 134 5 0 0 0 - - -;
#X text 198 137 bpm;
#X text 107 109 "t" to set tempo;
#X obj 162 328 s ttempo;
#X obj 287 233 s ttapdelay;
#X obj 117 45 sel 116;
#X obj 28 308 s avatartemp;
#X obj 19 244 s metroV;
#X obj 43 59 r pads;
#X obj 43 81 sel 52;
#X connect 0 0 3 0;
#X connect 0 0 4 0;
#X connect 1 0 2 0;
#X connect 2 0 15 0;
#X connect 3 0 5 0;
#X connect 4 0 6 0;
#X connect 5 0 7 0;
#X connect 6 0 7 1;
#X connect 7 0 8 0;
#X connect 8 0 9 0;
#X connect 8 0 14 0;
#X connect 8 0 16 0;
#X connect 8 0 17 0;
#X connect 9 0 10 0;
#X connect 10 0 13 0;
#X connect 15 0 0 0;
#X connect 18 0 19 0;
#X connect 19 0 0 0;
#X coords 0 -1 1 1 130 70 1 100 100;
