#N canvas 161 114 969 354 10;
#X obj 88 48 route analog digital;
#X obj 71 72 route 0 1 2 3 4 5 6 7;
#X floatatom 71 104 5 0 0 0 - - -;
#X floatatom 86 126 5 0 0 0 - - -;
#X floatatom 101 147 5 0 0 0 - - -;
#X floatatom 117 169 5 0 0 0 - - -;
#X floatatom 132 197 5 0 0 0 - - -;
#X floatatom 147 219 5 0 0 0 - - -;
#X obj 88 19 arduino 6;
#X obj 467 -189 f;
#X obj 493 -189 + 1;
#X obj 467 -160 mod 3;
#X obj 467 -226 bng 15 250 50 0 empty empty empty 17 7 0 10 -262144
-1 -1;
#X floatatom 757 -102 5 0 0 0 - - -;
#X obj 477 -216 bng 15 250 50 0 empty empty empty 17 7 0 10 -262144
-1 -1;
#X obj 757 -157 bng 15 250 50 0 empty empty empty 17 7 0 10 -262144
-1 -1;
#X obj 757 -133 random 626;
#X msg 698 -107 o (;
#X msg 698 -134 set o (;
#X msg 836 -105 );
#X msg 836 -135 set );
#X msg 731 -33 set \$1 \$2 \$3;
#X msg 737 9 0 0 0;
#X obj 808 13 print;
#X obj 731 -58 pack s f s;
#X connect 0 0 1 0;
#X connect 1 0 2 0;
#X connect 1 1 3 0;
#X connect 1 2 4 0;
#X connect 1 3 5 0;
#X connect 1 4 6 0;
#X connect 1 5 7 0;
#X connect 8 0 0 0;
#X connect 9 0 11 0;
#X connect 9 0 10 0;
#X connect 10 0 9 1;
#X connect 12 0 9 0;
#X connect 13 0 24 1;
#X connect 15 0 16 0;
#X connect 16 0 13 0;
#X connect 17 0 24 0;
#X connect 18 0 17 0;
#X connect 19 0 24 2;
#X connect 20 0 19 0;
#X connect 21 0 22 0;
#X connect 24 0 21 0;
#X connect 24 0 23 0;
