#N canvas -8 -8 1366 685 10;
#X obj 174 619 unpack f f f f f f f;
#X msg 174 597 60 62 64 65 67 69 71;
#X obj 305 618 unpack f f f f f f f;
#X msg 305 596 60 62 63 65 67 68 71;
#X obj 84 683 s eskala1;
#X obj 154 683 s eskala2;
#X obj 224 683 s eskala3;
#X obj 294 683 s eskala4;
#X obj 364 683 s eskala5;
#X obj 434 682 s eskala6;
#X obj 504 682 s eskala7;
#X obj 366 891 r eskala1;
#X floatatom 366 911 5 0 0 0 - - -;
#X obj 351 931 +;
#X floatatom 351 956 5 0 0 0 - - -;
#X obj 336 982 +;
#X floatatom 336 1006 5 0 0 0 - - -;
#X msg 122 913 -12;
#X msg 151 913 -24;
#X msg 180 913 -48;
#X obj 135 837 f;
#X obj 161 837 + 1;
#X obj 135 866 mod 3;
#X obj 182 816 bng 15 250 50 0 empty empty empty 17 7 0 10 -262144
-1 -1;
#X obj 135 890 sel 0 1 2;
#X obj 265 837 f;
#X obj 291 837 + 1;
#X obj 265 866 mod 3;
#X obj 234 816 bng 15 250 50 0 empty empty empty 17 7 0 10 -262144
-1 -1;
#X obj 265 890 sel 0 1 2;
#X msg 252 913 12;
#X msg 281 913 24;
#X msg 310 913 48;
#X msg 209 913 0;
#X obj 208 816 bng 15 250 50 0 empty empty empty 17 7 0 10 -262144
-1 -1;
#X obj 271 24 bng 15 250 50 0 empty empty empty 17 7 0 10 -262144 -1
-1;
#X obj 271 51 f;
#X obj 300 49 + 1;
#X obj 271 76 mod 13;
#X obj 351 868 r sumaabs;
#X obj 147 769 r octdow;
#X obj 208 766 r oct0;
#X obj 278 766 r octup;
#X obj 271 -3 r notup;
#X obj 305 562 r selmen;
#X obj 174 563 r selmaj;
#X obj 235 152 bng 25 250 50 0 empty empty empty 17 7 0 10 -262144
-1 -1;
#X obj 235 182 bng 25 250 50 0 empty empty empty 17 7 0 10 -262144
-1 -1;
#X obj 235 212 bng 25 250 50 0 empty empty empty 17 7 0 10 -262144
-1 -1;
#X obj 235 259 s octdow;
#X obj 235 286 s oct0;
#X obj 235 311 s octup;
#X obj 264 153 bng 43 250 50 0 empty empty empty 17 7 0 10 -262144
-1 -1;
#X obj 265 333 s notup;
#X floatatom 271 216 5 0 0 0 - - -;
#X obj 271 328 s sumaabs;
#X obj 154 126 cnv 15 15 125 empty empty empty 20 12 0 14 -233017 -66577
0;
#X obj 174 134 bng 33 250 50 0 empty empty empty 17 7 0 10 -232576
-1 -1;
#X obj 174 171 bng 33 250 50 0 empty empty empty 17 7 0 10 -232576
-1 -1;
#X obj 174 300 s selmaj;
#X floatatom 666 911 5 0 0 0 - - -;
#X obj 651 931 +;
#X floatatom 651 956 5 0 0 0 - - -;
#X obj 636 982 +;
#X floatatom 636 1006 5 0 0 0 - - -;
#X msg 422 913 -12;
#X msg 451 913 -24;
#X msg 480 913 -48;
#X obj 435 837 f;
#X obj 461 837 + 1;
#X obj 435 866 mod 3;
#X obj 482 816 bng 15 250 50 0 empty empty empty 17 7 0 10 -262144
-1 -1;
#X obj 435 890 sel 0 1 2;
#X obj 565 837 f;
#X obj 591 837 + 1;
#X obj 565 866 mod 3;
#X obj 534 816 bng 15 250 50 0 empty empty empty 17 7 0 10 -262144
-1 -1;
#X obj 565 890 sel 0 1 2;
#X msg 552 913 12;
#X msg 581 913 24;
#X msg 610 913 48;
#X msg 509 913 0;
#X obj 508 816 bng 15 250 50 0 empty empty empty 17 7 0 10 -262144
-1 -1;
#X obj 651 868 r sumaabs;
#X obj 447 769 r octdow;
#X obj 508 766 r oct0;
#X obj 578 766 r octup;
#X obj 666 891 r eskala2;
#X floatatom 976 911 5 0 0 0 - - -;
#X obj 961 931 +;
#X floatatom 961 956 5 0 0 0 - - -;
#X obj 946 982 +;
#X floatatom 946 1006 5 0 0 0 - - -;
#X msg 732 913 -12;
#X msg 761 913 -24;
#X msg 790 913 -48;
#X obj 745 837 f;
#X obj 771 837 + 1;
#X obj 745 866 mod 3;
#X obj 792 816 bng 15 250 50 0 empty empty empty 17 7 0 10 -262144
-1 -1;
#X obj 745 890 sel 0 1 2;
#X obj 875 837 f;
#X obj 901 837 + 1;
#X obj 875 866 mod 3;
#X obj 844 816 bng 15 250 50 0 empty empty empty 17 7 0 10 -262144
-1 -1;
#X obj 875 890 sel 0 1 2;
#X msg 862 913 12;
#X msg 891 913 24;
#X msg 920 913 48;
#X msg 819 913 0;
#X obj 818 816 bng 15 250 50 0 empty empty empty 17 7 0 10 -262144
-1 -1;
#X obj 961 868 r sumaabs;
#X obj 757 769 r octdow;
#X obj 818 766 r oct0;
#X obj 888 766 r octup;
#X floatatom 1276 461 5 0 0 0 - - -;
#X obj 1261 481 +;
#X floatatom 1261 506 5 0 0 0 - - -;
#X obj 1246 532 +;
#X floatatom 1246 556 5 0 0 0 - - -;
#X msg 1032 463 -12;
#X msg 1061 463 -24;
#X msg 1090 463 -48;
#X obj 1045 387 f;
#X obj 1071 387 + 1;
#X obj 1045 416 mod 3;
#X obj 1092 366 bng 15 250 50 0 empty empty empty 17 7 0 10 -262144
-1 -1;
#X obj 1045 440 sel 0 1 2;
#X obj 1175 387 f;
#X obj 1201 387 + 1;
#X obj 1175 416 mod 3;
#X obj 1144 366 bng 15 250 50 0 empty empty empty 17 7 0 10 -262144
-1 -1;
#X obj 1175 440 sel 0 1 2;
#X msg 1162 463 12;
#X msg 1191 463 24;
#X msg 1220 463 48;
#X msg 1119 463 0;
#X obj 1118 366 bng 15 250 50 0 empty empty empty 17 7 0 10 -262144
-1 -1;
#X obj 1261 418 r sumaabs;
#X obj 1057 319 r octdow;
#X obj 1118 316 r oct0;
#X obj 1188 316 r octup;
#X obj 976 891 r eskala3;
#X obj 1276 441 r eskala4;
#X floatatom 1576 461 5 0 0 0 - - -;
#X obj 1561 481 +;
#X floatatom 1561 506 5 0 0 0 - - -;
#X obj 1546 532 +;
#X floatatom 1546 556 5 0 0 0 - - -;
#X msg 1332 463 -12;
#X msg 1361 463 -24;
#X msg 1390 463 -48;
#X obj 1345 387 f;
#X obj 1371 387 + 1;
#X obj 1345 416 mod 3;
#X obj 1392 366 bng 15 250 50 0 empty empty empty 17 7 0 10 -262144
-1 -1;
#X obj 1345 440 sel 0 1 2;
#X obj 1475 387 f;
#X obj 1501 387 + 1;
#X obj 1475 416 mod 3;
#X obj 1444 366 bng 15 250 50 0 empty empty empty 17 7 0 10 -262144
-1 -1;
#X obj 1475 440 sel 0 1 2;
#X msg 1462 463 12;
#X msg 1491 463 24;
#X msg 1520 463 48;
#X msg 1419 463 0;
#X obj 1418 366 bng 15 250 50 0 empty empty empty 17 7 0 10 -262144
-1 -1;
#X obj 1561 418 r sumaabs;
#X obj 1357 319 r octdow;
#X obj 1418 316 r oct0;
#X obj 1488 316 r octup;
#X floatatom 1876 461 5 0 0 0 - - -;
#X obj 1861 481 +;
#X floatatom 1861 506 5 0 0 0 - - -;
#X obj 1846 532 +;
#X floatatom 1846 556 5 0 0 0 - - -;
#X msg 1632 463 -12;
#X msg 1661 463 -24;
#X msg 1690 463 -48;
#X obj 1645 387 f;
#X obj 1671 387 + 1;
#X obj 1645 416 mod 3;
#X obj 1692 366 bng 15 250 50 0 empty empty empty 17 7 0 10 -262144
-1 -1;
#X obj 1645 440 sel 0 1 2;
#X obj 1775 387 f;
#X obj 1801 387 + 1;
#X obj 1775 416 mod 3;
#X obj 1744 366 bng 15 250 50 0 empty empty empty 17 7 0 10 -262144
-1 -1;
#X obj 1775 440 sel 0 1 2;
#X msg 1762 463 12;
#X msg 1791 463 24;
#X msg 1820 463 48;
#X msg 1719 463 0;
#X obj 1718 366 bng 15 250 50 0 empty empty empty 17 7 0 10 -262144
-1 -1;
#X obj 1861 418 r sumaabs;
#X obj 1657 319 r octdow;
#X obj 1718 316 r oct0;
#X obj 1788 316 r octup;
#X obj 1576 441 r eskala5;
#X obj 1876 441 r eskala6;
#X floatatom 2176 461 5 0 0 0 - - -;
#X obj 2161 481 +;
#X floatatom 2161 506 5 0 0 0 - - -;
#X obj 2146 532 +;
#X floatatom 2146 556 5 0 0 0 - - -;
#X msg 1932 463 -12;
#X msg 1961 463 -24;
#X msg 1990 463 -48;
#X obj 1945 387 f;
#X obj 1971 387 + 1;
#X obj 1945 416 mod 3;
#X obj 1992 366 bng 15 250 50 0 empty empty empty 17 7 0 10 -262144
-1 -1;
#X obj 1945 440 sel 0 1 2;
#X obj 2075 387 f;
#X obj 2101 387 + 1;
#X obj 2075 416 mod 3;
#X obj 2044 366 bng 15 250 50 0 empty empty empty 17 7 0 10 -262144
-1 -1;
#X obj 2075 440 sel 0 1 2;
#X msg 2062 463 12;
#X msg 2091 463 24;
#X msg 2120 463 48;
#X msg 2019 463 0;
#X obj 2018 366 bng 15 250 50 0 empty empty empty 17 7 0 10 -262144
-1 -1;
#X obj 2161 418 r sumaabs;
#X obj 1957 319 r octdow;
#X obj 2018 316 r oct0;
#X obj 2088 316 r octup;
#X obj 2176 441 r eskala7;
#X obj 336 1028 s escala1;
#X obj 636 1028 s escala2;
#X obj 946 1028 s escala3;
#X obj 1246 578 s escala4;
#X obj 1546 578 s escala5;
#X obj 1846 580 s escala6;
#X obj 2146 580 s escala7;
#X obj 23 108 r escala1;
#X obj 23 126 r escala2;
#X obj 23 144 r escala3;
#X obj 23 162 r escala4;
#X obj 23 180 r escala5;
#X obj 23 198 r escala6;
#X obj 23 216 r escala7;
#X floatatom 127 125 4 0 0 0 - - -;
#X floatatom 127 143 4 0 0 0 - - -;
#X floatatom 127 161 4 0 0 0 - - -;
#X floatatom 127 179 4 0 0 0 - - -;
#X floatatom 127 197 4 0 0 0 - - -;
#X floatatom 127 215 4 0 0 0 - - -;
#X floatatom 127 233 4 0 0 0 - - -;
#X text 384 504 aqui se agregan las escalas!;
#X obj 174 321 s selmen;
#X text 233 137 8va+;
#X text 235 235 8va-;
#X text 180 142 Maj;
#X text 180 179 Men;
#X obj 111 126 cnv 15 15 125 empty empty empty 20 12 0 14 -233017 -66577
0;
#X text 114 125 1;
#X text 114 143 2;
#X text 114 161 3;
#X text 114 179 4;
#X text 114 197 5;
#X text 114 215 6;
#X text 114 233 7;
#X text 120 107 Notas:;
#X text 242 186 C;
#X text 273 167 + 1;
#X text 270 198 Tono:;
#X text 174 107 Modos:;
#X obj 435 618 unpack f f f f f f f;
#X obj 435 562 r selblu;
#X obj 174 208 bng 33 250 50 0 empty empty empty 17 7 0 10 -232576
-1 -1;
#X text 180 216 Blu;
#X obj 174 343 s selblu;
#X msg 435 596 60 62 63 64 65 67 70;
#X obj 214 126 cnv 15 15 125 empty empty empty 20 12 0 14 -233017 -66577
0;
#X text 240 107 Transportar:;
#X obj 173 27 loadbang;
#X obj 206 -38 key;
#X obj 173 46 delay 10;
#X obj 173 65 delay 20;
#X obj 206 -22 sel 113 122 120 99;
#X connect 0 0 4 0;
#X connect 0 1 5 0;
#X connect 0 2 6 0;
#X connect 0 3 7 0;
#X connect 0 4 8 0;
#X connect 0 5 9 0;
#X connect 0 6 10 0;
#X connect 1 0 0 0;
#X connect 2 0 4 0;
#X connect 2 1 5 0;
#X connect 2 2 6 0;
#X connect 2 3 7 0;
#X connect 2 4 8 0;
#X connect 2 5 9 0;
#X connect 2 6 10 0;
#X connect 3 0 2 0;
#X connect 11 0 12 0;
#X connect 12 0 13 1;
#X connect 13 0 14 0;
#X connect 14 0 15 1;
#X connect 15 0 16 0;
#X connect 16 0 228 0;
#X connect 17 0 15 0;
#X connect 18 0 15 0;
#X connect 19 0 15 0;
#X connect 20 0 22 0;
#X connect 20 0 21 0;
#X connect 21 0 20 1;
#X connect 22 0 24 0;
#X connect 23 0 20 0;
#X connect 24 0 17 0;
#X connect 24 1 18 0;
#X connect 24 2 19 0;
#X connect 25 0 27 0;
#X connect 25 0 26 0;
#X connect 26 0 25 1;
#X connect 27 0 29 0;
#X connect 28 0 25 0;
#X connect 29 0 30 0;
#X connect 29 1 31 0;
#X connect 29 2 32 0;
#X connect 30 0 15 0;
#X connect 31 0 15 0;
#X connect 32 0 15 0;
#X connect 33 0 15 0;
#X connect 34 0 33 0;
#X connect 35 0 36 0;
#X connect 36 0 37 0;
#X connect 36 0 38 0;
#X connect 37 0 36 1;
#X connect 38 0 54 0;
#X connect 39 0 13 0;
#X connect 40 0 23 0;
#X connect 41 0 34 0;
#X connect 42 0 28 0;
#X connect 43 0 35 0;
#X connect 44 0 3 0;
#X connect 45 0 1 0;
#X connect 46 0 51 0;
#X connect 47 0 50 0;
#X connect 48 0 49 0;
#X connect 52 0 53 0;
#X connect 54 0 55 0;
#X connect 57 0 59 0;
#X connect 58 0 250 0;
#X connect 60 0 61 1;
#X connect 61 0 62 0;
#X connect 62 0 63 1;
#X connect 63 0 64 0;
#X connect 64 0 229 0;
#X connect 65 0 63 0;
#X connect 66 0 63 0;
#X connect 67 0 63 0;
#X connect 68 0 70 0;
#X connect 68 0 69 0;
#X connect 69 0 68 1;
#X connect 70 0 72 0;
#X connect 71 0 68 0;
#X connect 72 0 65 0;
#X connect 72 1 66 0;
#X connect 72 2 67 0;
#X connect 73 0 75 0;
#X connect 73 0 74 0;
#X connect 74 0 73 1;
#X connect 75 0 77 0;
#X connect 76 0 73 0;
#X connect 77 0 78 0;
#X connect 77 1 79 0;
#X connect 77 2 80 0;
#X connect 78 0 63 0;
#X connect 79 0 63 0;
#X connect 80 0 63 0;
#X connect 81 0 63 0;
#X connect 82 0 81 0;
#X connect 83 0 61 0;
#X connect 84 0 71 0;
#X connect 85 0 82 0;
#X connect 86 0 76 0;
#X connect 87 0 60 0;
#X connect 88 0 89 1;
#X connect 89 0 90 0;
#X connect 90 0 91 1;
#X connect 91 0 92 0;
#X connect 92 0 230 0;
#X connect 93 0 91 0;
#X connect 94 0 91 0;
#X connect 95 0 91 0;
#X connect 96 0 98 0;
#X connect 96 0 97 0;
#X connect 97 0 96 1;
#X connect 98 0 100 0;
#X connect 99 0 96 0;
#X connect 100 0 93 0;
#X connect 100 1 94 0;
#X connect 100 2 95 0;
#X connect 101 0 103 0;
#X connect 101 0 102 0;
#X connect 102 0 101 1;
#X connect 103 0 105 0;
#X connect 104 0 101 0;
#X connect 105 0 106 0;
#X connect 105 1 107 0;
#X connect 105 2 108 0;
#X connect 106 0 91 0;
#X connect 107 0 91 0;
#X connect 108 0 91 0;
#X connect 109 0 91 0;
#X connect 110 0 109 0;
#X connect 111 0 89 0;
#X connect 112 0 99 0;
#X connect 113 0 110 0;
#X connect 114 0 104 0;
#X connect 115 0 116 1;
#X connect 116 0 117 0;
#X connect 117 0 118 1;
#X connect 118 0 119 0;
#X connect 119 0 231 0;
#X connect 120 0 118 0;
#X connect 121 0 118 0;
#X connect 122 0 118 0;
#X connect 123 0 125 0;
#X connect 123 0 124 0;
#X connect 124 0 123 1;
#X connect 125 0 127 0;
#X connect 126 0 123 0;
#X connect 127 0 120 0;
#X connect 127 1 121 0;
#X connect 127 2 122 0;
#X connect 128 0 130 0;
#X connect 128 0 129 0;
#X connect 129 0 128 1;
#X connect 130 0 132 0;
#X connect 131 0 128 0;
#X connect 132 0 133 0;
#X connect 132 1 134 0;
#X connect 132 2 135 0;
#X connect 133 0 118 0;
#X connect 134 0 118 0;
#X connect 135 0 118 0;
#X connect 136 0 118 0;
#X connect 137 0 136 0;
#X connect 138 0 116 0;
#X connect 139 0 126 0;
#X connect 140 0 137 0;
#X connect 141 0 131 0;
#X connect 142 0 88 0;
#X connect 143 0 115 0;
#X connect 144 0 145 1;
#X connect 145 0 146 0;
#X connect 146 0 147 1;
#X connect 147 0 148 0;
#X connect 148 0 232 0;
#X connect 149 0 147 0;
#X connect 150 0 147 0;
#X connect 151 0 147 0;
#X connect 152 0 154 0;
#X connect 152 0 153 0;
#X connect 153 0 152 1;
#X connect 154 0 156 0;
#X connect 155 0 152 0;
#X connect 156 0 149 0;
#X connect 156 1 150 0;
#X connect 156 2 151 0;
#X connect 157 0 159 0;
#X connect 157 0 158 0;
#X connect 158 0 157 1;
#X connect 159 0 161 0;
#X connect 160 0 157 0;
#X connect 161 0 162 0;
#X connect 161 1 163 0;
#X connect 161 2 164 0;
#X connect 162 0 147 0;
#X connect 163 0 147 0;
#X connect 164 0 147 0;
#X connect 165 0 147 0;
#X connect 166 0 165 0;
#X connect 167 0 145 0;
#X connect 168 0 155 0;
#X connect 169 0 166 0;
#X connect 170 0 160 0;
#X connect 171 0 172 1;
#X connect 172 0 173 0;
#X connect 173 0 174 1;
#X connect 174 0 175 0;
#X connect 175 0 233 0;
#X connect 176 0 174 0;
#X connect 177 0 174 0;
#X connect 178 0 174 0;
#X connect 179 0 181 0;
#X connect 179 0 180 0;
#X connect 180 0 179 1;
#X connect 181 0 183 0;
#X connect 182 0 179 0;
#X connect 183 0 176 0;
#X connect 183 1 177 0;
#X connect 183 2 178 0;
#X connect 184 0 186 0;
#X connect 184 0 185 0;
#X connect 185 0 184 1;
#X connect 186 0 188 0;
#X connect 187 0 184 0;
#X connect 188 0 189 0;
#X connect 188 1 190 0;
#X connect 188 2 191 0;
#X connect 189 0 174 0;
#X connect 190 0 174 0;
#X connect 191 0 174 0;
#X connect 192 0 174 0;
#X connect 193 0 192 0;
#X connect 194 0 172 0;
#X connect 195 0 182 0;
#X connect 196 0 193 0;
#X connect 197 0 187 0;
#X connect 198 0 144 0;
#X connect 199 0 171 0;
#X connect 200 0 201 1;
#X connect 201 0 202 0;
#X connect 202 0 203 1;
#X connect 203 0 204 0;
#X connect 204 0 234 0;
#X connect 205 0 203 0;
#X connect 206 0 203 0;
#X connect 207 0 203 0;
#X connect 208 0 210 0;
#X connect 208 0 209 0;
#X connect 209 0 208 1;
#X connect 210 0 212 0;
#X connect 211 0 208 0;
#X connect 212 0 205 0;
#X connect 212 1 206 0;
#X connect 212 2 207 0;
#X connect 213 0 215 0;
#X connect 213 0 214 0;
#X connect 214 0 213 1;
#X connect 215 0 217 0;
#X connect 216 0 213 0;
#X connect 217 0 218 0;
#X connect 217 1 219 0;
#X connect 217 2 220 0;
#X connect 218 0 203 0;
#X connect 219 0 203 0;
#X connect 220 0 203 0;
#X connect 221 0 203 0;
#X connect 222 0 221 0;
#X connect 223 0 201 0;
#X connect 224 0 211 0;
#X connect 225 0 222 0;
#X connect 226 0 216 0;
#X connect 227 0 200 0;
#X connect 235 0 242 0;
#X connect 236 0 243 0;
#X connect 237 0 244 0;
#X connect 238 0 245 0;
#X connect 239 0 246 0;
#X connect 240 0 247 0;
#X connect 241 0 248 0;
#X connect 268 0 4 0;
#X connect 268 1 5 0;
#X connect 268 2 6 0;
#X connect 268 3 7 0;
#X connect 268 4 8 0;
#X connect 268 5 9 0;
#X connect 268 6 10 0;
#X connect 269 0 273 0;
#X connect 270 0 272 0;
#X connect 273 0 268 0;
#X connect 276 0 57 0;
#X connect 276 0 278 0;
#X connect 276 0 279 0;
#X connect 277 0 280 0;
#X connect 278 0 52 0;
#X connect 279 0 47 0;
#X connect 280 0 46 0;
#X connect 280 1 48 0;
#X connect 280 2 47 0;
#X connect 280 3 52 0;
#X coords 0 -1 2 1 220 160 2 100 100;
