#N canvas 2 109 635 317 10;
#X obj 111 144 hradio 17 1 0 8 empty empty empty 0 -8 0 10 -262144
-1 -1 1;
#N canvas 214 0 974 669 digi-presets 0;
#X obj 21 313 s dpset1;
#X obj 133 346 s dpset2;
#X obj 307 379 s dpset3;
#X obj 361 379 s dpset4;
#X obj 425 379 s dpset5;
#X obj 476 379 s dpset6;
#X msg 133 318 0;
#X msg 160 318 1;
#X msg 187 318 2;
#X msg 214 318 3;
#X obj 21 84 r dpset1r;
#X obj 75 83 r dpset2r;
#X obj 129 83 r dpset3r;
#X obj 183 83 r dpset4r;
#X obj 237 83 r dpset5r;
#X obj 291 83 r dpset6r;
#X floatatom 21 104 5 0 0 0 - - -;
#X floatatom 75 103 5 0 0 0 - - -;
#X floatatom 129 103 5 0 0 0 - - -;
#X floatatom 183 104 5 0 0 0 - - -;
#X floatatom 237 103 5 0 0 0 - - -;
#X floatatom 291 103 5 0 0 0 - - -;
#X msg 415 148 0;
#X msg 435 169 0;
#X msg 445 190 0;
#X msg 455 211 0;
#X msg 90 193 58.89;
#X msg 104 214 79.14;
#X msg 118 235 75;
#X msg 21 167 103;
#X msg 34 187 51.53;
#X obj 20 131 sel 0 1 2 3 4 5 6 7;
#X msg 351 148 408;
#X msg 466 148 0;
#X msg 296 148 0;
#X msg 316 169 408;
#X msg 375 169 408;
#X msg 486 169 0;
#X msg 48 208 62;
#X msg 62 229 91.29;
#X msg 336 211 1020;
#X msg 395 211 204;
#X msg 506 211 3469;
#X msg 76 172 33.13;
#X msg 465 234 0.122;
#X msg 516 234 0;
#X msg 405 234 204;
#X msg 346 234 0;
#X msg 354 256 0;
#X msg 413 256 1836;
#X msg 473 256 0.04;
#X msg 524 256 0;
#X msg 358 279 816;
#X msg 417 279 408;
#X msg 477 279 0.04;
#X msg 528 279 2448;
#X msg 481 300 0;
#X msg 362 300 2857;
#X msg 421 300 1632;
#X msg 532 300 2448;
#X obj 20 22 inlet;
#X msg 326 190 0;
#X msg 385 190 3700;
#X msg 496 190 1414;
#X connect 6 0 1 0;
#X connect 7 0 1 0;
#X connect 8 0 1 0;
#X connect 9 0 1 0;
#X connect 10 0 16 0;
#X connect 11 0 17 0;
#X connect 12 0 18 0;
#X connect 13 0 19 0;
#X connect 14 0 20 0;
#X connect 15 0 21 0;
#X connect 22 0 4 0;
#X connect 23 0 4 0;
#X connect 24 0 4 0;
#X connect 25 0 4 0;
#X connect 26 0 0 0;
#X connect 27 0 0 0;
#X connect 28 0 0 0;
#X connect 29 0 0 0;
#X connect 30 0 0 0;
#X connect 31 0 29 0;
#X connect 31 0 6 0;
#X connect 31 0 34 0;
#X connect 31 0 32 0;
#X connect 31 0 22 0;
#X connect 31 0 33 0;
#X connect 31 1 30 0;
#X connect 31 1 35 0;
#X connect 31 1 36 0;
#X connect 31 1 23 0;
#X connect 31 1 37 0;
#X connect 31 1 6 0;
#X connect 31 2 38 0;
#X connect 31 2 7 0;
#X connect 31 2 61 0;
#X connect 31 2 62 0;
#X connect 31 2 24 0;
#X connect 31 2 63 0;
#X connect 31 3 39 0;
#X connect 31 3 9 0;
#X connect 31 3 40 0;
#X connect 31 3 41 0;
#X connect 31 3 25 0;
#X connect 31 3 42 0;
#X connect 31 4 43 0;
#X connect 31 4 9 0;
#X connect 31 4 47 0;
#X connect 31 4 46 0;
#X connect 31 4 44 0;
#X connect 31 4 45 0;
#X connect 31 5 26 0;
#X connect 31 5 7 0;
#X connect 31 5 48 0;
#X connect 31 5 49 0;
#X connect 31 5 50 0;
#X connect 31 5 51 0;
#X connect 31 6 27 0;
#X connect 31 6 8 0;
#X connect 31 6 52 0;
#X connect 31 6 53 0;
#X connect 31 6 54 0;
#X connect 31 6 55 0;
#X connect 31 7 28 0;
#X connect 31 7 8 0;
#X connect 31 7 57 0;
#X connect 31 7 58 0;
#X connect 31 7 56 0;
#X connect 31 7 59 0;
#X connect 32 0 3 0;
#X connect 33 0 5 0;
#X connect 34 0 2 0;
#X connect 35 0 2 0;
#X connect 36 0 3 0;
#X connect 37 0 5 0;
#X connect 38 0 0 0;
#X connect 39 0 0 0;
#X connect 40 0 2 0;
#X connect 41 0 3 0;
#X connect 42 0 5 0;
#X connect 43 0 0 0;
#X connect 44 0 4 0;
#X connect 45 0 5 0;
#X connect 46 0 3 0;
#X connect 47 0 2 0;
#X connect 48 0 2 0;
#X connect 49 0 3 0;
#X connect 50 0 4 0;
#X connect 51 0 5 0;
#X connect 52 0 2 0;
#X connect 53 0 3 0;
#X connect 54 0 4 0;
#X connect 55 0 5 0;
#X connect 56 0 4 0;
#X connect 57 0 2 0;
#X connect 58 0 3 0;
#X connect 59 0 5 0;
#X connect 60 0 31 0;
#X connect 61 0 2 0;
#X connect 62 0 3 0;
#X connect 63 0 5 0;
#X restore -79 161 pd digi-presets;
#X obj -80 105 loadbang;
#X msg -80 127 2;
#N canvas 50 351 450 300 twoops-presets 0;
#X obj 24 34 inlet;
#X obj 153 55 sel 0 1 2 3 4 5 6 7;
#X msg 73 137 3;
#X obj 73 190 s topre2;
#X obj 46 212 s topre1;
#X msg 46 159 1.5;
#X obj 149 192 s topre2;
#X obj 122 214 s topre1;
#X msg 122 161 0.5;
#X msg 149 139 4;
#X obj 365 194 s topre2;
#X obj 338 216 s topre1;
#X msg 365 141 11;
#X msg 338 163 1;
#X connect 0 0 1 0;
#X connect 1 0 2 0;
#X connect 1 0 5 0;
#X connect 1 1 8 0;
#X connect 1 1 9 0;
#X connect 1 8 12 0;
#X connect 1 8 13 0;
#X connect 2 0 3 0;
#X connect 5 0 4 0;
#X connect 8 0 7 0;
#X connect 9 0 6 0;
#X connect 12 0 10 0;
#X connect 13 0 11 0;
#X restore -79 184 pd twoops-presets;
#X obj 111 167 hradio 17 1 0 8 empty empty empty 0 -8 0 10 -262144
-1 -1 0;
#X obj 111 111 hradio 20 1 0 7 empty empty empty 0 -8 0 10 -262130
-1 -1 1;
#X obj 111 190 hradio 17 1 0 8 empty empty empty 0 -8 0 10 -262144
-1 -1 4;
#N canvas 0 0 1183 669 veider-presets 0;
#X floatatom 83 61 5 0 0 0 - - -;
#X floatatom 137 60 5 0 0 0 - - -;
#X floatatom 191 60 5 0 0 0 - - -;
#X floatatom 245 61 5 0 0 0 - - -;
#X floatatom 299 60 5 0 0 0 - - -;
#X floatatom 353 60 5 0 0 0 - - -;
#X msg 420 282 0;
#X msg 440 303 0;
#X msg 450 324 0;
#X msg 460 345 0;
#X msg 66 389 58.89;
#X msg 80 410 79.14;
#X msg 94 431 75;
#X msg -3 363 103;
#X msg 10 383 51.53;
#X obj 30 135 sel 0 1 2 3 4 5 6 7;
#X msg 356 282 408;
#X msg 471 282 0;
#X msg 301 282 0;
#X msg 321 303 408;
#X msg 380 303 408;
#X msg 491 303 0;
#X msg 24 404 62;
#X msg 38 425 91.29;
#X msg 341 345 1020;
#X msg 400 345 204;
#X msg 511 345 3469;
#X msg 52 368 33.13;
#X msg 470 368 0.122;
#X msg 521 368 0;
#X msg 410 368 204;
#X msg 351 368 0;
#X msg 359 390 0;
#X msg 418 390 1836;
#X msg 478 390 0.04;
#X msg 529 390 0;
#X msg 363 413 816;
#X msg 422 413 408;
#X msg 482 413 0.04;
#X msg 533 413 2448;
#X msg 486 434 0;
#X msg 367 434 2857;
#X msg 426 434 1632;
#X msg 537 434 2448;
#X obj 30 32 inlet;
#X msg 331 324 0;
#X msg 390 324 3700;
#X msg 501 324 1414;
#X obj 12 481 s vpset1;
#X obj 168 471 s vpset2;
#X obj 312 513 s vpset3;
#X obj 366 513 s vpset4;
#X obj 430 513 s vpset5;
#X obj 489 513 s vpset6;
#X obj 83 41 r vpset1r;
#X obj 137 40 r vpset2r;
#X obj 191 40 r vpset3r;
#X obj 245 40 r vpset4r;
#X obj 299 40 r vpset5r;
#X obj 353 40 r vpset6r;
#X msg 188 381 58.89;
#X msg 202 402 79.14;
#X msg 216 423 75;
#X msg 132 375 51.53;
#X msg 146 396 62;
#X msg 160 417 91.29;
#X msg 174 360 33.13;
#X msg 130 352 75;
#X msg 685 158 0;
#X msg 705 179 0;
#X msg 715 200 0;
#X msg 725 221 0;
#X msg 621 158 408;
#X msg 736 158 0;
#X msg 566 158 0;
#X msg 586 179 408;
#X msg 645 179 408;
#X msg 756 179 0;
#X msg 606 221 1020;
#X msg 665 221 204;
#X msg 776 221 3469;
#X msg 735 244 0.122;
#X msg 786 244 0;
#X msg 675 244 204;
#X msg 616 244 0;
#X msg 624 266 0;
#X msg 683 266 1836;
#X msg 743 266 0.04;
#X msg 794 266 0;
#X msg 628 289 816;
#X msg 687 289 408;
#X msg 747 289 0.04;
#X msg 798 289 2448;
#X msg 751 310 0;
#X msg 632 310 2857;
#X msg 691 310 1632;
#X msg 802 310 2448;
#X msg 596 200 0;
#X msg 655 200 3700;
#X msg 766 200 1414;
#X msg 979 112 58.89;
#X msg 993 133 79.14;
#X msg 1007 154 75;
#X msg 923 106 51.53;
#X msg 937 127 62;
#X msg 951 148 91.29;
#X msg 965 91 33.13;
#X msg 921 83 75;
#X obj 577 389 s vpset7;
#X obj 631 389 s vpset8;
#X obj 695 389 s vpset9;
#X obj 754 389 s vpset10;
#X obj 959 202 s vpset11;
#X floatatom 412 60 5 0 0 0 - - -;
#X floatatom 466 59 5 0 0 0 - - -;
#X floatatom 520 59 5 0 0 0 - - -;
#X floatatom 574 60 5 0 0 0 - - -;
#X floatatom 628 59 5 0 0 0 - - -;
#X floatatom 682 59 5 0 0 0 - - -;
#X obj 682 39 r vpset6r;
#X obj 412 40 r vpset7r;
#X obj 466 39 r vpset8r;
#X obj 520 39 r vpset9r;
#X obj 574 39 r vpset10r;
#X obj 628 39 r vpset11r;
#X connect 6 0 52 0;
#X connect 7 0 52 0;
#X connect 8 0 52 0;
#X connect 9 0 52 0;
#X connect 10 0 48 0;
#X connect 11 0 48 0;
#X connect 12 0 48 0;
#X connect 13 0 48 0;
#X connect 14 0 48 0;
#X connect 15 0 13 0;
#X connect 15 0 18 0;
#X connect 15 0 16 0;
#X connect 15 0 6 0;
#X connect 15 0 17 0;
#X connect 15 0 74 0;
#X connect 15 0 72 0;
#X connect 15 0 68 0;
#X connect 15 0 67 0;
#X connect 15 0 73 0;
#X connect 15 0 107 0;
#X connect 15 1 14 0;
#X connect 15 1 19 0;
#X connect 15 1 20 0;
#X connect 15 1 7 0;
#X connect 15 1 21 0;
#X connect 15 1 75 0;
#X connect 15 1 76 0;
#X connect 15 1 69 0;
#X connect 15 1 63 0;
#X connect 15 1 77 0;
#X connect 15 1 103 0;
#X connect 15 2 22 0;
#X connect 15 2 45 0;
#X connect 15 2 46 0;
#X connect 15 2 8 0;
#X connect 15 2 47 0;
#X connect 15 2 97 0;
#X connect 15 2 98 0;
#X connect 15 2 70 0;
#X connect 15 2 64 0;
#X connect 15 2 99 0;
#X connect 15 2 104 0;
#X connect 15 3 23 0;
#X connect 15 3 24 0;
#X connect 15 3 25 0;
#X connect 15 3 9 0;
#X connect 15 3 26 0;
#X connect 15 3 78 0;
#X connect 15 3 79 0;
#X connect 15 3 71 0;
#X connect 15 3 65 0;
#X connect 15 3 80 0;
#X connect 15 3 105 0;
#X connect 15 4 27 0;
#X connect 15 4 31 0;
#X connect 15 4 30 0;
#X connect 15 4 28 0;
#X connect 15 4 29 0;
#X connect 15 4 84 0;
#X connect 15 4 83 0;
#X connect 15 4 81 0;
#X connect 15 4 66 0;
#X connect 15 4 82 0;
#X connect 15 4 106 0;
#X connect 15 5 10 0;
#X connect 15 5 32 0;
#X connect 15 5 33 0;
#X connect 15 5 34 0;
#X connect 15 5 35 0;
#X connect 15 5 85 0;
#X connect 15 5 86 0;
#X connect 15 5 87 0;
#X connect 15 5 60 0;
#X connect 15 5 88 0;
#X connect 15 5 100 0;
#X connect 15 6 11 0;
#X connect 15 6 36 0;
#X connect 15 6 37 0;
#X connect 15 6 38 0;
#X connect 15 6 39 0;
#X connect 15 6 89 0;
#X connect 15 6 90 0;
#X connect 15 6 91 0;
#X connect 15 6 61 0;
#X connect 15 6 92 0;
#X connect 15 6 101 0;
#X connect 15 7 12 0;
#X connect 15 7 41 0;
#X connect 15 7 42 0;
#X connect 15 7 40 0;
#X connect 15 7 43 0;
#X connect 15 7 94 0;
#X connect 15 7 95 0;
#X connect 15 7 93 0;
#X connect 15 7 62 0;
#X connect 15 7 96 0;
#X connect 15 7 102 0;
#X connect 16 0 51 0;
#X connect 17 0 53 0;
#X connect 18 0 50 0;
#X connect 19 0 50 0;
#X connect 20 0 51 0;
#X connect 21 0 53 0;
#X connect 22 0 48 0;
#X connect 23 0 48 0;
#X connect 24 0 50 0;
#X connect 25 0 51 0;
#X connect 26 0 53 0;
#X connect 27 0 48 0;
#X connect 28 0 52 0;
#X connect 29 0 53 0;
#X connect 30 0 51 0;
#X connect 31 0 50 0;
#X connect 32 0 50 0;
#X connect 33 0 51 0;
#X connect 34 0 52 0;
#X connect 35 0 53 0;
#X connect 36 0 50 0;
#X connect 37 0 51 0;
#X connect 38 0 52 0;
#X connect 39 0 53 0;
#X connect 40 0 52 0;
#X connect 41 0 50 0;
#X connect 42 0 51 0;
#X connect 43 0 53 0;
#X connect 44 0 15 0;
#X connect 45 0 50 0;
#X connect 46 0 51 0;
#X connect 47 0 53 0;
#X connect 54 0 0 0;
#X connect 55 0 1 0;
#X connect 56 0 2 0;
#X connect 57 0 3 0;
#X connect 58 0 4 0;
#X connect 59 0 5 0;
#X connect 60 0 49 0;
#X connect 61 0 49 0;
#X connect 62 0 49 0;
#X connect 63 0 49 0;
#X connect 64 0 49 0;
#X connect 65 0 49 0;
#X connect 66 0 49 0;
#X connect 67 0 49 0;
#X connect 68 0 110 0;
#X connect 69 0 110 0;
#X connect 70 0 110 0;
#X connect 71 0 110 0;
#X connect 72 0 109 0;
#X connect 73 0 111 0;
#X connect 74 0 108 0;
#X connect 75 0 108 0;
#X connect 76 0 109 0;
#X connect 77 0 111 0;
#X connect 78 0 108 0;
#X connect 79 0 109 0;
#X connect 80 0 111 0;
#X connect 81 0 110 0;
#X connect 82 0 111 0;
#X connect 83 0 109 0;
#X connect 84 0 108 0;
#X connect 85 0 108 0;
#X connect 86 0 109 0;
#X connect 87 0 110 0;
#X connect 88 0 111 0;
#X connect 89 0 108 0;
#X connect 90 0 109 0;
#X connect 91 0 110 0;
#X connect 92 0 111 0;
#X connect 93 0 110 0;
#X connect 94 0 108 0;
#X connect 95 0 109 0;
#X connect 96 0 111 0;
#X connect 97 0 108 0;
#X connect 98 0 109 0;
#X connect 99 0 111 0;
#X connect 100 0 112 0;
#X connect 101 0 112 0;
#X connect 102 0 112 0;
#X connect 103 0 112 0;
#X connect 104 0 112 0;
#X connect 105 0 112 0;
#X connect 106 0 112 0;
#X connect 107 0 112 0;
#X connect 119 0 118 0;
#X connect 120 0 113 0;
#X connect 121 0 114 0;
#X connect 122 0 115 0;
#X connect 123 0 116 0;
#X connect 124 0 117 0;
#X restore -79 207 pd veider-presets;
#N canvas 702 205 447 300 gen-presets 0;
#X obj 28 29 inlet;
#X obj 58 234 outlet;
#X obj 125 57 sel 0 1 2 3 4 5 6;
#X msg 55 127 0;
#X msg 65 147 1;
#X msg 75 167 2;
#X msg 86 187 3;
#X msg 85 127 4;
#X msg 95 147 5;
#X msg 105 167 6;
#X msg 116 187 7;
#X obj 178 234 outlet;
#X msg 175 127 0;
#X msg 185 147 1;
#X msg 195 167 2;
#X msg 206 187 3;
#X msg 205 127 4;
#X msg 215 147 5;
#X msg 225 167 6;
#X msg 236 187 7;
#X obj 288 234 outlet;
#X msg 285 127 0;
#X msg 295 147 1;
#X msg 305 167 2;
#X msg 316 187 3;
#X msg 315 127 4;
#X msg 325 147 5;
#X msg 335 167 6;
#X msg 346 187 7;
#X connect 0 0 2 0;
#X connect 2 0 3 0;
#X connect 2 0 16 0;
#X connect 2 0 23 0;
#X connect 2 1 4 0;
#X connect 2 1 12 0;
#X connect 2 1 25 0;
#X connect 2 2 9 0;
#X connect 2 2 14 0;
#X connect 2 2 21 0;
#X connect 2 3 8 0;
#X connect 2 3 17 0;
#X connect 2 4 6 0;
#X connect 2 4 12 0;
#X connect 2 4 27 0;
#X connect 2 5 10 0;
#X connect 2 5 18 0;
#X connect 2 5 24 0;
#X connect 2 6 5 0;
#X connect 2 6 15 0;
#X connect 2 6 28 0;
#X connect 3 0 1 0;
#X connect 4 0 1 0;
#X connect 5 0 1 0;
#X connect 6 0 1 0;
#X connect 7 0 1 0;
#X connect 8 0 1 0;
#X connect 9 0 1 0;
#X connect 10 0 1 0;
#X connect 12 0 11 0;
#X connect 13 0 11 0;
#X connect 14 0 11 0;
#X connect 15 0 11 0;
#X connect 16 0 11 0;
#X connect 17 0 11 0;
#X connect 18 0 11 0;
#X connect 19 0 11 0;
#X connect 21 0 20 0;
#X connect 22 0 20 0;
#X connect 23 0 20 0;
#X connect 24 0 20 0;
#X connect 25 0 20 0;
#X connect 26 0 20 0;
#X connect 27 0 20 0;
#X connect 28 0 20 0;
#X restore 4 81 pd gen-presets;
#X obj 134 27 loadbang;
#X obj 134 47 delay 1000;
#X msg 134 68 1;
#X connect 0 0 1 0;
#X connect 2 0 3 0;
#X connect 3 0 0 0;
#X connect 5 0 4 0;
#X connect 6 0 9 0;
#X connect 9 0 0 0;
#X connect 9 1 5 0;
#X connect 9 2 7 0;
#X connect 10 0 11 0;
#X connect 11 0 12 0;
#X connect 12 0 6 0;
#X coords 0 -1 1 1 160 115 2 100 100;
