#N canvas 597 40 450 300 10;
#X obj -48 35 key;
#X floatatom -129 60 5 0 0 0 - - -;
#X msg -104 164 stop;
#X obj -210 21 inlet~;
#X obj -129 192 writesf~ 2;
#X obj 29 140 inlet~;
#X msg 41 226 1;
#X msg 86 228 0;
#X obj 101 101 bng 40 250 50 0 empty empty empty 17 7 0 10 -262144
-1 -1;
#X obj 41 253 metro 100;
#X obj -129 92 sel 44 46;
#X msg -240 134 open memo.wav \, start;
#X obj -225 87 r~ exclusiver;
#X obj -30 93 r~ exclusivel;
#X connect 0 0 1 0;
#X connect 1 0 10 0;
#X connect 2 0 4 0;
#X connect 3 0 4 0;
#X connect 5 0 4 1;
#X connect 6 0 9 0;
#X connect 7 0 9 0;
#X connect 9 0 8 0;
#X connect 10 0 6 0;
#X connect 10 0 11 0;
#X connect 10 1 2 0;
#X connect 10 1 7 0;
#X connect 11 0 4 0;
#X connect 12 0 4 0;
#X connect 13 0 4 1;
#X coords 0 -1 1 1 42 42 2 100 100;
