#N canvas 0 0 1362 685 10;
#X obj 113 223 hradio 25 1 0 9 empty empty empty 0 -8 0 10 -262144
-1 -1 0;
#X obj 116 123 hsl 195 25 0 3 0 0 empty empty empty -2 -8 0 10 -204786
-1 -1 6467 1;
#X obj 239 520 *~;
#X obj 269 520 *~;
#X text 177 126 1;
#X text 137 126 0.5;
#X text 240 126 2;
#X text 304 126 3;
#X obj 117 45 loadbang;
#X obj 319 538 s~ allsL;
#X obj 374 538 s~ allsR;
#X msg 282 370 0;
#X msg 310 370 1;
#X obj 287 398 *~;
#X obj 267 346 r~ veiderM;
#X msg 217 369 0;
#X msg 245 369 1;
#X obj 222 397 *~;
#X obj 202 346 r~ fmM;
#X msg 143 369 0;
#X msg 171 369 1;
#X obj 148 397 *~;
#X obj 128 346 r~ digiM;
#X obj 379 346 r~ findelL;
#X obj 447 346 r~ findelR;
#X obj 378 398 *~;
#X obj 448 398 *~;
#X msg 417 374 0;
#X msg 450 374 1;
#X obj 633 346 r~ phaserM;
#X obj 553 345 r~ flangerM;
#X msg 567 368 0;
#X msg 595 368 1;
#X obj 554 390 *~;
#X text 145 227 2;
#X text 122 227 1;
#X text 170 227 3;
#X text 221 227 D;
#X text 190 227 123;
#X text 247 227 F;
#X text 271 227 P;
#X text 296 227 R;
#X text 321 227 T;
#X obj 316 123 bng 25 250 50 0 empty empty empty 17 7 0 10 -262144
-1 -1;
#X msg 239 63 0;
#X obj 316 48 key;
#X obj 316 68 sel 124;
#X text 324 129 °;
#X msg 649 368 0;
#X msg 677 368 1;
#X obj 634 396 *~;
#X obj 548 502 *~;
#X obj 578 501 *~;
#X obj 569 590 dac~;
#X obj 422 488 s~ allFxL;
#X obj 705 489 s~ allFxR;
#X obj 771 346 r~ revL;
#X obj 825 346 r~ revR;
#X obj 772 396 *~;
#X obj 842 396 *~;
#X msg 811 372 0;
#X msg 844 372 1;
#X obj 399 239 sel 0 1 2 3 4 5 6 7 8;
#X obj 174 566 dac~;
#X obj 545 541 *~;
#X obj 116 173 hsl 195 25 0 1.5 0 0 empty empty empty -2 -8 0 10 -262144
-1 -1 6467 1;
#X text 241 177 1;
#X text 171 177 0.5;
#X msg 109 -46 0.5;
#X obj 109 -71 loadbang;
#X obj 316 173 bng 25 250 50 0 empty empty empty 17 7 0 10 -262144
-1 -1;
#X msg 249 -177 0;
#X obj 326 -192 key;
#X obj 326 -172 sel 124;
#X text 324 179 °;
#X text 291 177 1.5;
#X text 112 105 ampli;
#X msg 117 65 1;
#X text 111 205 elegir fuentes:;
#X text 1057 674 hasta abajo;
#X obj 585 541 *~;
#X text 110 155 vol fx;
#X obj 466 534 r~ lupeL;
#X obj 706 526 r~ lupeR;
#X obj 629 438 r~ sequ;
#X connect 0 0 62 0;
#X connect 1 0 2 1;
#X connect 1 0 3 1;
#X connect 1 0 51 1;
#X connect 1 0 52 1;
#X connect 2 0 9 0;
#X connect 2 0 51 0;
#X connect 2 0 63 0;
#X connect 3 0 10 0;
#X connect 3 0 52 0;
#X connect 3 0 63 1;
#X connect 8 0 77 0;
#X connect 11 0 13 1;
#X connect 12 0 13 1;
#X connect 13 0 2 0;
#X connect 13 0 3 0;
#X connect 14 0 13 0;
#X connect 15 0 17 1;
#X connect 16 0 17 1;
#X connect 17 0 2 0;
#X connect 17 0 3 0;
#X connect 18 0 17 0;
#X connect 19 0 21 1;
#X connect 20 0 21 1;
#X connect 21 0 2 0;
#X connect 21 0 3 0;
#X connect 22 0 21 0;
#X connect 23 0 25 0;
#X connect 24 0 26 0;
#X connect 25 0 51 0;
#X connect 26 0 52 0;
#X connect 27 0 25 1;
#X connect 27 0 26 1;
#X connect 28 0 25 1;
#X connect 28 0 26 1;
#X connect 29 0 50 0;
#X connect 30 0 33 0;
#X connect 31 0 33 1;
#X connect 32 0 33 1;
#X connect 33 0 51 0;
#X connect 33 0 52 0;
#X connect 43 0 44 0;
#X connect 44 0 1 0;
#X connect 45 0 46 0;
#X connect 46 0 43 0;
#X connect 48 0 50 1;
#X connect 49 0 50 1;
#X connect 50 0 52 0;
#X connect 50 0 51 0;
#X connect 51 0 64 0;
#X connect 52 0 80 0;
#X connect 56 0 58 0;
#X connect 57 0 59 0;
#X connect 58 0 51 0;
#X connect 59 0 52 0;
#X connect 60 0 58 1;
#X connect 60 0 59 1;
#X connect 61 0 58 1;
#X connect 61 0 59 1;
#X connect 62 0 20 0;
#X connect 62 0 15 0;
#X connect 62 0 11 0;
#X connect 62 0 27 0;
#X connect 62 0 31 0;
#X connect 62 0 48 0;
#X connect 62 0 60 0;
#X connect 62 1 19 0;
#X connect 62 1 16 0;
#X connect 62 1 11 0;
#X connect 62 1 27 0;
#X connect 62 1 31 0;
#X connect 62 1 48 0;
#X connect 62 1 60 0;
#X connect 62 2 19 0;
#X connect 62 2 15 0;
#X connect 62 2 12 0;
#X connect 62 2 27 0;
#X connect 62 2 31 0;
#X connect 62 2 48 0;
#X connect 62 2 60 0;
#X connect 62 3 20 0;
#X connect 62 3 16 0;
#X connect 62 3 12 0;
#X connect 62 3 27 0;
#X connect 62 3 31 0;
#X connect 62 3 48 0;
#X connect 62 3 60 0;
#X connect 62 4 20 0;
#X connect 62 4 16 0;
#X connect 62 4 12 0;
#X connect 62 4 28 0;
#X connect 62 4 31 0;
#X connect 62 4 48 0;
#X connect 62 4 60 0;
#X connect 62 5 20 0;
#X connect 62 5 16 0;
#X connect 62 5 12 0;
#X connect 62 5 27 0;
#X connect 62 5 32 0;
#X connect 62 5 48 0;
#X connect 62 5 60 0;
#X connect 62 6 20 0;
#X connect 62 6 16 0;
#X connect 62 6 12 0;
#X connect 62 6 27 0;
#X connect 62 6 31 0;
#X connect 62 6 49 0;
#X connect 62 6 60 0;
#X connect 62 7 20 0;
#X connect 62 7 16 0;
#X connect 62 7 12 0;
#X connect 62 7 27 0;
#X connect 62 7 31 0;
#X connect 62 7 48 0;
#X connect 62 7 61 0;
#X connect 62 8 20 0;
#X connect 62 8 16 0;
#X connect 62 8 12 0;
#X connect 62 8 28 0;
#X connect 62 8 32 0;
#X connect 62 8 49 0;
#X connect 62 8 61 0;
#X connect 64 0 53 0;
#X connect 64 0 54 0;
#X connect 65 0 64 1;
#X connect 65 0 80 1;
#X connect 68 0 65 0;
#X connect 69 0 68 0;
#X connect 70 0 71 0;
#X connect 71 0 65 0;
#X connect 72 0 73 0;
#X connect 73 0 70 0;
#X connect 77 0 1 0;
#X connect 80 0 53 1;
#X connect 80 0 55 0;
#X connect 82 0 53 0;
#X connect 83 0 53 1;
#X connect 84 0 64 0;
#X connect 84 0 80 0;
#X coords 0 -1 1 1 250 160 2 100 100;
