#N canvas 10 181 1424 621 10;
#X obj -196 313 delwrite~ R1 40000;
#X obj -196 335 delread~ R1;
#X obj -76 313 delwrite~ R2 40000;
#X obj -76 335 delread~ R2;
#X obj -196 357 delwrite~ R3 40000;
#X obj -75 357 delwrite~ R4 40000;
#X obj -196 378 delread~ R3;
#X obj -76 378 delread~ R4;
#X obj -198 447 delwrite~ L1 40000;
#X obj -78 447 delwrite~ L2 40000;
#X obj -197 469 delread~ L1;
#X obj -77 469 delread~ L2;
#X obj -197 491 delwrite~ L3 40000;
#X obj -76 491 delwrite~ L4 40000;
#X obj -197 511 delread~ L3;
#X obj -77 512 delread~ L4;
#X floatatom 174 150 5 0 0 0 - - -;
#X floatatom 175 174 5 0 0 0 - - -;
#X floatatom 175 200 5 0 0 0 - - -;
#X floatatom 175 224 5 0 0 0 - - -;
#X floatatom 133 150 5 0 0 0 - - -;
#X floatatom 134 174 5 0 0 0 - - -;
#X floatatom 134 200 5 0 0 0 - - -;
#X floatatom 134 224 5 0 0 0 - - -;
#X obj -196 395 outlet~;
#X obj -197 530 outlet~;
#X obj -197 423 inlet~;
#X obj -199 290 inlet~;
#X text 147 129 l // r;
#X floatatom -119 -404 5 0 0 0 - - -;
#X obj -119 -427 r ttapdelay;
#X text 278 113 Presets:;
#X text 226 124 Abs;
#X text 227 196 Rel;
#X msg -450 108 150;
#X msg -490 108 0;
#X msg -490 138 300;
#X msg -450 138 450;
#X msg -490 168 600;
#X msg -450 168 750;
#X msg -490 198 900;
#X msg -450 198 1050;
#X msg -310 108 0;
#X text 377 -208 fin;
#X msg -270 108 300;
#X msg -310 138 600;
#X msg -270 138 900;
#X msg -310 168 1200;
#X msg -270 168 1500;
#X msg -310 198 1800;
#X msg -270 198 2100;
#X msg -400 108 0;
#X msg -220 108 0;
#X msg -360 108 250;
#X msg -400 138 500;
#X msg -360 138 750;
#X msg -400 168 1000;
#X msg -360 168 1250;
#X msg -400 199 1500;
#X msg -360 198 1750;
#X msg -180 108 500;
#X msg -220 138 1500;
#X msg -180 138 2000;
#X msg -220 168 2500;
#X msg -180 168 3000;
#X msg -220 198 3500;
#X msg -180 198 4000;
#X obj -467 70 r pdabs1;
#X obj -201 74 r pdabs4;
#X obj 228 154 bng 20 250 50 0 empty empty empty 17 7 0 10 -204800
-1 -1;
#X obj 268 154 bng 20 250 50 0 empty empty empty 17 7 0 10 -203904
-1 -1;
#X obj 308 154 bng 20 250 50 0 empty empty empty 17 7 0 10 -232576
-1 -1;
#X obj 348 154 bng 20 250 50 0 empty empty empty 17 7 0 10 -159808
-1 -1;
#X text 226 138 150;
#X text 266 138 250;
#X text 306 138 300;
#X text 346 138 500;
#X obj -384 72 r pdabs2;
#X obj -294 73 r pdabs3;
#X obj 228 365 s pdabs1;
#X obj 228 224 bng 20 250 50 0 empty empty empty 17 7 0 10 -204800
-1 -1;
#X obj 268 224 bng 20 250 50 0 empty empty empty 17 7 0 10 -203904
-1 -1;
#X obj 308 224 bng 20 250 50 0 empty empty empty 17 7 0 10 -232576
-1 -1;
#X obj 348 224 bng 20 250 50 0 empty empty empty 17 7 0 10 -159808
-1 -1;
#X obj 418 190 bng 15 250 50 0 empty empty empty 17 7 0 10 -262144
-1 -1;
#X msg -556 175 0;
#X obj 268 334 s pdabs2;
#X obj 308 365 s pdabs3;
#X obj 348 332 s pdabs4;
#X obj 470 205 s pdabs0;
#X obj -556 152 r pdabs0;
#X obj 228 455 s pdabs5;
#X obj 268 424 s pdabs6;
#X obj 308 455 s pdabs7;
#X obj 348 422 s pdabs8;
#X obj -355 -316 / 3;
#X floatatom -355 -292 5 0 0 0 - - -;
#X floatatom -315 -292 5 0 0 0 - - -;
#X obj -355 -269 +;
#X floatatom -355 -246 5 0 0 0 - - -;
#X floatatom -314 -246 5 0 0 0 - - -;
#X text 232 208 3;
#X obj -355 -224 +;
#X floatatom -355 -198 5 0 0 0 - - -;
#X floatatom -317 -198 5 0 0 0 - - -;
#X obj -355 -174 +;
#X floatatom -355 -149 5 0 0 0 - - -;
#X floatatom -316 -149 5 0 0 0 - - -;
#X obj -355 -124 +;
#X floatatom -355 -99 5 0 0 0 - - -;
#X floatatom -316 -99 5 0 0 0 - - -;
#X obj -355 -74 +;
#X floatatom -355 -49 5 0 0 0 - - -;
#X floatatom -316 -49 5 0 0 0 - - -;
#X obj -355 -24 +;
#X floatatom -355 1 5 0 0 0 - - -;
#X floatatom -115 -292 5 0 0 0 - - -;
#X floatatom -75 -292 5 0 0 0 - - -;
#X obj -115 -269 +;
#X floatatom -115 -246 5 0 0 0 - - -;
#X floatatom -74 -246 5 0 0 0 - - -;
#X obj -115 -224 +;
#X floatatom -115 -198 5 0 0 0 - - -;
#X floatatom -77 -198 5 0 0 0 - - -;
#X obj -115 -174 +;
#X floatatom -115 -149 5 0 0 0 - - -;
#X floatatom -76 -149 5 0 0 0 - - -;
#X obj -115 -124 +;
#X floatatom -115 -99 5 0 0 0 - - -;
#X floatatom -76 -99 5 0 0 0 - - -;
#X obj -115 -74 +;
#X floatatom -115 -49 5 0 0 0 - - -;
#X floatatom -76 -49 5 0 0 0 - - -;
#X obj -115 -24 +;
#X floatatom -115 1 5 0 0 0 - - -;
#X floatatom 105 -292 5 0 0 0 - - -;
#X floatatom 145 -292 5 0 0 0 - - -;
#X obj 105 -269 +;
#X floatatom 105 -246 5 0 0 0 - - -;
#X floatatom 146 -246 5 0 0 0 - - -;
#X obj 105 -224 +;
#X floatatom 105 -198 5 0 0 0 - - -;
#X floatatom 143 -198 5 0 0 0 - - -;
#X obj 105 -174 +;
#X floatatom 105 -149 5 0 0 0 - - -;
#X floatatom 144 -149 5 0 0 0 - - -;
#X obj 105 -124 +;
#X floatatom 105 -99 5 0 0 0 - - -;
#X floatatom 144 -99 5 0 0 0 - - -;
#X obj 105 -74 +;
#X floatatom 105 -49 5 0 0 0 - - -;
#X floatatom 144 -49 5 0 0 0 - - -;
#X obj 105 -24 +;
#X floatatom 105 1 5 0 0 0 - - -;
#X obj -115 -317 / 4;
#X obj 105 -322 / 5;
#X text 272 208 4;
#X text 312 208 5;
#X floatatom 374 227 5 0 0 0 - - -;
#X text 346 207 otro;
#X obj 374 282 s otrodelay;
#X obj 325 -320 /;
#X floatatom 340 -345 5 0 0 0 - - -;
#X obj 340 -371 r otrodelay;
#X floatatom 325 -292 5 0 0 0 - - -;
#X floatatom 365 -292 5 0 0 0 - - -;
#X obj 325 -269 +;
#X floatatom 325 -246 5 0 0 0 - - -;
#X floatatom 366 -246 5 0 0 0 - - -;
#X obj 325 -224 +;
#X floatatom 325 -198 5 0 0 0 - - -;
#X floatatom 363 -198 5 0 0 0 - - -;
#X obj 325 -174 +;
#X floatatom 325 -149 5 0 0 0 - - -;
#X floatatom 364 -149 5 0 0 0 - - -;
#X obj 325 -124 +;
#X floatatom 325 -99 5 0 0 0 - - -;
#X floatatom 364 -99 5 0 0 0 - - -;
#X obj 325 -74 +;
#X floatatom 325 -49 5 0 0 0 - - -;
#X floatatom 364 -49 5 0 0 0 - - -;
#X obj 325 -24 +;
#X floatatom 325 1 5 0 0 0 - - -;
#X obj -430 -319 r pdabs5;
#X msg -411 -284 0;
#X obj -411 -265 +;
#X floatatom -411 -244 5 0 0 0 - - -;
#X msg -461 -284 0;
#X floatatom -461 -244 5 0 0 0 - - -;
#X obj -461 -265 + 0;
#X msg -411 -224 0;
#X obj -411 -205 +;
#X floatatom -411 -184 5 0 0 0 - - -;
#X msg -461 -224 0;
#X floatatom -461 -184 5 0 0 0 - - -;
#X msg -411 -164 0;
#X obj -411 -145 +;
#X floatatom -411 -124 5 0 0 0 - - -;
#X msg -461 -164 0;
#X floatatom -461 -124 5 0 0 0 - - -;
#X msg -411 -104 0;
#X obj -411 -85 +;
#X floatatom -411 -64 5 0 0 0 - - -;
#X msg -461 -104 0;
#X floatatom -461 -64 5 0 0 0 - - -;
#X obj -461 -85 + 0;
#X obj -461 -205 +;
#X obj -461 -145 +;
#X msg -171 -284 0;
#X obj -171 -265 +;
#X floatatom -171 -244 5 0 0 0 - - -;
#X msg -221 -284 0;
#X floatatom -221 -244 5 0 0 0 - - -;
#X obj -221 -265 + 0;
#X msg -171 -224 0;
#X obj -171 -205 +;
#X floatatom -171 -184 5 0 0 0 - - -;
#X msg -221 -224 0;
#X floatatom -221 -184 5 0 0 0 - - -;
#X msg -171 -164 0;
#X obj -171 -145 +;
#X floatatom -171 -124 5 0 0 0 - - -;
#X msg -221 -164 0;
#X floatatom -221 -124 5 0 0 0 - - -;
#X msg -171 -104 0;
#X obj -171 -85 +;
#X floatatom -171 -64 5 0 0 0 - - -;
#X msg -221 -104 0;
#X floatatom -221 -64 5 0 0 0 - - -;
#X obj -221 -85 + 0;
#X obj -221 -205 +;
#X obj -221 -145 +;
#X obj -190 -319 r pdabs6;
#X msg 59 -284 0;
#X obj 59 -265 +;
#X floatatom 59 -244 5 0 0 0 - - -;
#X msg 9 -284 0;
#X floatatom 9 -244 5 0 0 0 - - -;
#X obj 9 -265 + 0;
#X msg 59 -224 0;
#X obj 59 -205 +;
#X floatatom 59 -184 5 0 0 0 - - -;
#X msg 9 -224 0;
#X floatatom 9 -184 5 0 0 0 - - -;
#X msg 59 -164 0;
#X obj 59 -145 +;
#X floatatom 59 -124 5 0 0 0 - - -;
#X msg 9 -164 0;
#X floatatom 9 -124 5 0 0 0 - - -;
#X msg 59 -104 0;
#X obj 59 -85 +;
#X floatatom 59 -64 5 0 0 0 - - -;
#X msg 9 -104 0;
#X floatatom 9 -64 5 0 0 0 - - -;
#X obj 9 -85 + 0;
#X obj 9 -205 +;
#X obj 9 -145 +;
#X obj 40 -319 r pdabs7;
#X msg 279 -284 0;
#X obj 279 -265 +;
#X floatatom 279 -244 5 0 0 0 - - -;
#X msg 229 -284 0;
#X floatatom 229 -244 5 0 0 0 - - -;
#X obj 229 -265 + 0;
#X msg 279 -224 0;
#X obj 279 -205 +;
#X floatatom 279 -184 5 0 0 0 - - -;
#X msg 229 -224 0;
#X floatatom 229 -184 5 0 0 0 - - -;
#X msg 279 -164 0;
#X obj 279 -145 +;
#X floatatom 279 -124 5 0 0 0 - - -;
#X msg 229 -164 0;
#X floatatom 229 -124 5 0 0 0 - - -;
#X msg 279 -104 0;
#X obj 279 -85 +;
#X floatatom 279 -64 5 0 0 0 - - -;
#X msg 229 -104 0;
#X floatatom 229 -64 5 0 0 0 - - -;
#X obj 229 -85 + 0;
#X obj 229 -205 +;
#X obj 229 -145 +;
#X obj 260 -319 r pdabs8;
#X obj 461 -6 r kb11a;
#X obj 597 -6 r kb12a;
#X obj 469 41 bng 15 250 50 0 empty empty empty 17 7 0 10 -262144 -1
-1;
#X obj 499 43 bng 15 250 50 0 empty empty empty 17 7 0 10 -262144 -1
-1;
#X obj 524 44 bng 15 250 50 0 empty empty empty 17 7 0 10 -262144 -1
-1;
#X obj 545 45 bng 15 250 50 0 empty empty empty 17 7 0 10 -262144 -1
-1;
#X obj 461 17 sel 0 31 61 94 127;
#X text 562 -49 control;
#X text 126 -403 rel presets;
#X obj 605 41 bng 15 250 50 0 empty empty empty 17 7 0 10 -262144 -1
-1;
#X obj 635 43 bng 15 250 50 0 empty empty empty 17 7 0 10 -262144 -1
-1;
#X obj 660 44 bng 15 250 50 0 empty empty empty 17 7 0 10 -262144 -1
-1;
#X obj 681 45 bng 15 250 50 0 empty empty empty 17 7 0 10 -262144 -1
-1;
#X obj 597 17 sel 0 31 61 94 127;
#X text 222 173 (kb11);
#X text 222 242 (kb12);
#X connect 1 0 24 0;
#X connect 3 0 24 0;
#X connect 6 0 24 0;
#X connect 7 0 24 0;
#X connect 10 0 25 0;
#X connect 11 0 25 0;
#X connect 14 0 25 0;
#X connect 15 0 25 0;
#X connect 16 0 1 0;
#X connect 17 0 3 0;
#X connect 18 0 6 0;
#X connect 19 0 7 0;
#X connect 20 0 10 0;
#X connect 21 0 11 0;
#X connect 22 0 14 0;
#X connect 23 0 15 0;
#X connect 26 0 8 0;
#X connect 26 0 9 0;
#X connect 26 0 12 0;
#X connect 26 0 13 0;
#X connect 27 0 0 0;
#X connect 27 0 2 0;
#X connect 27 0 4 0;
#X connect 27 0 5 0;
#X connect 29 0 95 0;
#X connect 29 0 154 0;
#X connect 29 0 155 0;
#X connect 29 0 161 0;
#X connect 30 0 29 0;
#X connect 34 0 16 0;
#X connect 35 0 20 0;
#X connect 36 0 21 0;
#X connect 37 0 17 0;
#X connect 38 0 22 0;
#X connect 39 0 18 0;
#X connect 40 0 23 0;
#X connect 41 0 19 0;
#X connect 42 0 20 0;
#X connect 44 0 16 0;
#X connect 45 0 21 0;
#X connect 46 0 17 0;
#X connect 47 0 22 0;
#X connect 48 0 18 0;
#X connect 49 0 23 0;
#X connect 50 0 19 0;
#X connect 51 0 20 0;
#X connect 52 0 20 0;
#X connect 53 0 16 0;
#X connect 54 0 21 0;
#X connect 55 0 17 0;
#X connect 56 0 22 0;
#X connect 57 0 18 0;
#X connect 58 0 23 0;
#X connect 59 0 19 0;
#X connect 60 0 16 0;
#X connect 61 0 21 0;
#X connect 62 0 17 0;
#X connect 63 0 22 0;
#X connect 64 0 18 0;
#X connect 65 0 23 0;
#X connect 66 0 19 0;
#X connect 67 0 35 0;
#X connect 67 0 34 0;
#X connect 67 0 36 0;
#X connect 67 0 37 0;
#X connect 67 0 38 0;
#X connect 67 0 39 0;
#X connect 67 0 40 0;
#X connect 67 0 41 0;
#X connect 68 0 52 0;
#X connect 68 0 60 0;
#X connect 68 0 61 0;
#X connect 68 0 62 0;
#X connect 68 0 63 0;
#X connect 68 0 64 0;
#X connect 68 0 65 0;
#X connect 68 0 66 0;
#X connect 69 0 79 0;
#X connect 70 0 86 0;
#X connect 71 0 87 0;
#X connect 72 0 88 0;
#X connect 77 0 51 0;
#X connect 77 0 53 0;
#X connect 77 0 54 0;
#X connect 77 0 55 0;
#X connect 77 0 56 0;
#X connect 77 0 57 0;
#X connect 77 0 58 0;
#X connect 77 0 59 0;
#X connect 78 0 42 0;
#X connect 78 0 44 0;
#X connect 78 0 45 0;
#X connect 78 0 46 0;
#X connect 78 0 47 0;
#X connect 78 0 48 0;
#X connect 78 0 49 0;
#X connect 78 0 50 0;
#X connect 80 0 91 0;
#X connect 81 0 92 0;
#X connect 82 0 93 0;
#X connect 83 0 94 0;
#X connect 84 0 89 0;
#X connect 85 0 20 0;
#X connect 85 0 16 0;
#X connect 85 0 21 0;
#X connect 85 0 17 0;
#X connect 85 0 22 0;
#X connect 85 0 18 0;
#X connect 85 0 23 0;
#X connect 85 0 19 0;
#X connect 90 0 85 0;
#X connect 95 0 96 0;
#X connect 96 0 97 0;
#X connect 96 0 98 0;
#X connect 96 0 100 0;
#X connect 96 0 104 0;
#X connect 96 0 107 0;
#X connect 96 0 110 0;
#X connect 96 0 113 0;
#X connect 96 0 185 1;
#X connect 97 0 98 1;
#X connect 98 0 99 0;
#X connect 99 0 102 0;
#X connect 99 0 206 1;
#X connect 100 0 102 1;
#X connect 102 0 103 0;
#X connect 103 0 105 0;
#X connect 103 0 191 1;
#X connect 104 0 105 1;
#X connect 105 0 106 0;
#X connect 106 0 108 0;
#X connect 106 0 207 1;
#X connect 107 0 108 1;
#X connect 108 0 109 0;
#X connect 109 0 111 0;
#X connect 109 0 196 1;
#X connect 110 0 111 1;
#X connect 111 0 112 0;
#X connect 112 0 114 0;
#X connect 112 0 205 1;
#X connect 113 0 114 1;
#X connect 114 0 115 0;
#X connect 115 0 201 1;
#X connect 116 0 117 0;
#X connect 116 0 118 0;
#X connect 116 0 120 0;
#X connect 116 0 123 0;
#X connect 116 0 126 0;
#X connect 116 0 129 0;
#X connect 116 0 132 0;
#X connect 116 0 209 1;
#X connect 117 0 118 1;
#X connect 118 0 119 0;
#X connect 119 0 121 0;
#X connect 119 0 230 1;
#X connect 120 0 121 1;
#X connect 121 0 122 0;
#X connect 122 0 124 0;
#X connect 122 0 215 1;
#X connect 123 0 124 1;
#X connect 124 0 125 0;
#X connect 125 0 127 0;
#X connect 125 0 231 1;
#X connect 126 0 127 1;
#X connect 127 0 128 0;
#X connect 128 0 130 0;
#X connect 128 0 220 1;
#X connect 129 0 130 1;
#X connect 130 0 131 0;
#X connect 131 0 133 0;
#X connect 131 0 229 1;
#X connect 132 0 133 1;
#X connect 133 0 134 0;
#X connect 134 0 225 1;
#X connect 135 0 136 0;
#X connect 135 0 137 0;
#X connect 135 0 139 0;
#X connect 135 0 142 0;
#X connect 135 0 145 0;
#X connect 135 0 148 0;
#X connect 135 0 151 0;
#X connect 135 0 234 1;
#X connect 136 0 137 1;
#X connect 137 0 138 0;
#X connect 138 0 140 0;
#X connect 138 0 255 1;
#X connect 139 0 140 1;
#X connect 140 0 141 0;
#X connect 141 0 143 0;
#X connect 141 0 240 1;
#X connect 142 0 143 1;
#X connect 143 0 144 0;
#X connect 144 0 146 0;
#X connect 144 0 256 1;
#X connect 145 0 146 1;
#X connect 146 0 147 0;
#X connect 147 0 149 0;
#X connect 147 0 245 1;
#X connect 148 0 149 1;
#X connect 149 0 150 0;
#X connect 150 0 152 0;
#X connect 150 0 254 1;
#X connect 151 0 152 1;
#X connect 152 0 153 0;
#X connect 153 0 250 1;
#X connect 154 0 116 0;
#X connect 155 0 135 0;
#X connect 158 0 160 0;
#X connect 161 0 164 0;
#X connect 162 0 161 1;
#X connect 163 0 162 0;
#X connect 164 0 165 0;
#X connect 164 0 166 0;
#X connect 164 0 168 0;
#X connect 164 0 171 0;
#X connect 164 0 174 0;
#X connect 164 0 177 0;
#X connect 164 0 180 0;
#X connect 164 0 259 1;
#X connect 165 0 166 1;
#X connect 166 0 167 0;
#X connect 167 0 169 0;
#X connect 167 0 280 1;
#X connect 168 0 169 1;
#X connect 169 0 170 0;
#X connect 170 0 172 0;
#X connect 170 0 265 1;
#X connect 171 0 172 1;
#X connect 172 0 173 0;
#X connect 173 0 175 0;
#X connect 173 0 281 1;
#X connect 174 0 175 1;
#X connect 175 0 176 0;
#X connect 176 0 178 0;
#X connect 176 0 270 1;
#X connect 177 0 178 1;
#X connect 178 0 179 0;
#X connect 179 0 181 0;
#X connect 179 0 279 1;
#X connect 180 0 181 1;
#X connect 181 0 182 0;
#X connect 182 0 275 1;
#X connect 183 0 187 0;
#X connect 183 0 184 0;
#X connect 183 0 193 0;
#X connect 183 0 190 0;
#X connect 183 0 198 0;
#X connect 183 0 195 0;
#X connect 183 0 203 0;
#X connect 183 0 200 0;
#X connect 184 0 185 0;
#X connect 185 0 186 0;
#X connect 186 0 16 0;
#X connect 187 0 189 0;
#X connect 188 0 20 0;
#X connect 189 0 188 0;
#X connect 190 0 191 0;
#X connect 191 0 192 0;
#X connect 192 0 17 0;
#X connect 193 0 206 0;
#X connect 194 0 21 0;
#X connect 195 0 196 0;
#X connect 196 0 197 0;
#X connect 197 0 18 0;
#X connect 198 0 207 0;
#X connect 199 0 22 0;
#X connect 200 0 201 0;
#X connect 201 0 202 0;
#X connect 202 0 19 0;
#X connect 203 0 205 0;
#X connect 204 0 23 0;
#X connect 205 0 204 0;
#X connect 206 0 194 0;
#X connect 207 0 199 0;
#X connect 208 0 209 0;
#X connect 209 0 210 0;
#X connect 210 0 16 0;
#X connect 211 0 213 0;
#X connect 212 0 20 0;
#X connect 213 0 212 0;
#X connect 214 0 215 0;
#X connect 215 0 216 0;
#X connect 216 0 17 0;
#X connect 217 0 230 0;
#X connect 218 0 21 0;
#X connect 219 0 220 0;
#X connect 220 0 221 0;
#X connect 221 0 18 0;
#X connect 222 0 231 0;
#X connect 223 0 22 0;
#X connect 224 0 225 0;
#X connect 224 0 18 0;
#X connect 225 0 226 0;
#X connect 226 0 19 0;
#X connect 227 0 229 0;
#X connect 228 0 23 0;
#X connect 229 0 228 0;
#X connect 230 0 218 0;
#X connect 231 0 223 0;
#X connect 232 0 211 0;
#X connect 232 0 208 0;
#X connect 232 0 217 0;
#X connect 232 0 214 0;
#X connect 232 0 222 0;
#X connect 232 0 219 0;
#X connect 232 0 227 0;
#X connect 232 0 224 0;
#X connect 233 0 234 0;
#X connect 234 0 235 0;
#X connect 235 0 16 0;
#X connect 236 0 238 0;
#X connect 237 0 20 0;
#X connect 238 0 237 0;
#X connect 239 0 240 0;
#X connect 240 0 241 0;
#X connect 241 0 17 0;
#X connect 242 0 255 0;
#X connect 243 0 21 0;
#X connect 244 0 245 0;
#X connect 245 0 246 0;
#X connect 246 0 18 0;
#X connect 247 0 256 0;
#X connect 248 0 22 0;
#X connect 249 0 250 0;
#X connect 250 0 251 0;
#X connect 251 0 19 0;
#X connect 252 0 254 0;
#X connect 253 0 23 0;
#X connect 254 0 253 0;
#X connect 255 0 243 0;
#X connect 256 0 248 0;
#X connect 257 0 236 0;
#X connect 257 0 233 0;
#X connect 257 0 242 0;
#X connect 257 0 239 0;
#X connect 257 0 247 0;
#X connect 257 0 244 0;
#X connect 257 0 252 0;
#X connect 257 0 249 0;
#X connect 258 0 259 0;
#X connect 259 0 260 0;
#X connect 260 0 16 0;
#X connect 261 0 263 0;
#X connect 262 0 20 0;
#X connect 263 0 262 0;
#X connect 264 0 265 0;
#X connect 265 0 266 0;
#X connect 266 0 17 0;
#X connect 267 0 280 0;
#X connect 268 0 21 0;
#X connect 269 0 270 0;
#X connect 270 0 271 0;
#X connect 271 0 18 0;
#X connect 272 0 281 0;
#X connect 273 0 22 0;
#X connect 274 0 275 0;
#X connect 275 0 276 0;
#X connect 276 0 19 0;
#X connect 277 0 279 0;
#X connect 278 0 23 0;
#X connect 279 0 278 0;
#X connect 280 0 268 0;
#X connect 281 0 273 0;
#X connect 282 0 261 0;
#X connect 282 0 258 0;
#X connect 282 0 267 0;
#X connect 282 0 264 0;
#X connect 282 0 272 0;
#X connect 282 0 269 0;
#X connect 282 0 277 0;
#X connect 282 0 274 0;
#X connect 283 0 289 0;
#X connect 284 0 296 0;
#X connect 285 0 69 0;
#X connect 286 0 70 0;
#X connect 287 0 71 0;
#X connect 288 0 72 0;
#X connect 289 0 84 0;
#X connect 289 1 285 0;
#X connect 289 2 286 0;
#X connect 289 3 287 0;
#X connect 289 4 288 0;
#X connect 292 0 80 0;
#X connect 293 0 81 0;
#X connect 294 0 82 0;
#X connect 295 0 83 0;
#X connect 296 0 84 0;
#X connect 296 1 292 0;
#X connect 296 2 293 0;
#X connect 296 3 294 0;
#X connect 296 4 295 0;
#X coords 0 -1 1 1 350 175 1 100 100;
