#N canvas 566 118 761 534 10;
#X obj 16 37 r ard1;
#X floatatom 16 61 5 0 0 0 - - -;
#X obj 16 121 sel 1;
#X obj 16 153 bng 15 250 50 0 empty empty empty 17 7 0 10 -262144 -1
-1;
#X floatatom 58 138 5 0 0 0 - - -;
#X obj 58 98 spigot;
#X obj 142 268 bng 15 250 50 0 empty empty empty 17 7 0 10 -262144
-1 -1;
#X msg 142 308 0;
#X obj 142 334 +;
#X floatatom 142 357 5 0 0 0 - - -;
#X obj 142 287 metro 10;
#X text 135 244 filtro de bangs;
#X obj 16 181 s xb1;
#X obj 58 180 s xv1;
#X obj 143 32 r ard2;
#X floatatom 143 74 5 0 0 0 - - -;
#X obj 143 154 bng 15 250 50 0 empty empty empty 17 7 0 10 -262144
-1 -1;
#X obj 143 119 sel 1;
#X obj 143 182 s xb2;
#X obj 202 186 s xv2;
#X floatatom 261 76 5 0 0 0 - - -;
#X obj 261 156 bng 15 250 50 0 empty empty empty 17 7 0 10 -262144
-1 -1;
#X obj 261 121 sel 1;
#X obj 261 34 r ard3;
#X obj 261 184 s xb3;
#X obj 320 188 s xv3;
#X floatatom 378 60 5 0 0 0 - - -;
#X obj 378 120 sel 1;
#X obj 378 152 bng 15 250 50 0 empty empty empty 17 7 0 10 -262144
-1 -1;
#X floatatom 420 156 5 0 0 0 - - -;
#X obj 420 97 spigot;
#X obj 378 36 r ard4;
#X obj 378 180 s xb4;
#X obj 420 179 s xv4;
#X floatatom 505 60 5 0 0 0 - - -;
#X obj 505 120 sel 1;
#X obj 505 152 bng 15 250 50 0 empty empty empty 17 7 0 10 -262144
-1 -1;
#X floatatom 547 137 5 0 0 0 - - -;
#X obj 547 97 spigot;
#X obj 505 36 r ard5;
#X obj 505 180 s xb5;
#X obj 547 179 s xv5;
#X floatatom 632 55 5 0 0 0 - - -;
#X obj 632 115 sel 1;
#X obj 632 147 bng 15 250 50 0 empty empty empty 17 7 0 10 -262144
-1 -1;
#X floatatom 674 132 5 0 0 0 - - -;
#X obj 674 92 spigot;
#X obj 707 71 > 0.8;
#X obj 632 31 r ard6;
#X obj 632 175 s xb6;
#X obj 674 174 s xv6;
#X obj 632 93 > 0.2;
#X obj 202 90 * 0.1;
#X obj 320 92 * 0.1;
#X obj 143 53 * 10;
#X obj 261 55 * 10;
#X obj 143 97 > 0.1;
#X obj 261 99 > 0.1;
#X obj 357 362 bng 15 250 50 0 empty empty empty 17 7 0 10 -262144
-1 -1;
#X msg 357 385 1;
#X obj 357 414 *;
#X floatatom 357 439 5 0 0 0 - - -;
#X obj 245 349 r ctls-1;
#X floatatom 254 400 5 0 0 0 - - -;
#X obj 362 493 s ctls-1m;
#X obj 562 327 bng 15 250 50 0 empty empty empty 17 7 0 10 -262144
-1 -1;
#X msg 562 350 1;
#X obj 562 379 *;
#X floatatom 562 431 5 0 0 0 - - -;
#X floatatom 459 365 5 0 0 0 - - -;
#X obj 450 314 r ctls-1;
#X obj 463 466 s ctls-2m;
#X obj 562 404 - 12;
#X obj 505 98 > 0.7;
#X obj 580 76 > 0.7;
#X obj 547 157 * 2;
#X obj 16 99 > 0.7;
#X obj 91 77 > 0.7;
#X obj 420 129 * 2;
#X obj 351 464 + 12;
#X obj 378 98 > 0.3;
#X obj 453 76 > 0.3;
#X connect 0 0 1 0;
#X connect 1 0 5 0;
#X connect 1 0 76 0;
#X connect 1 0 77 0;
#X connect 2 0 3 0;
#X connect 3 0 12 0;
#X connect 3 0 58 0;
#X connect 4 0 13 0;
#X connect 5 0 4 0;
#X connect 6 0 10 0;
#X connect 7 0 8 0;
#X connect 8 0 9 0;
#X connect 10 0 7 0;
#X connect 14 0 54 0;
#X connect 15 0 52 0;
#X connect 15 0 56 0;
#X connect 16 0 18 0;
#X connect 17 0 16 0;
#X connect 20 0 53 0;
#X connect 20 0 57 0;
#X connect 21 0 24 0;
#X connect 22 0 21 0;
#X connect 23 0 55 0;
#X connect 26 0 30 0;
#X connect 26 0 80 0;
#X connect 26 0 81 0;
#X connect 27 0 28 0;
#X connect 28 0 32 0;
#X connect 28 0 65 0;
#X connect 29 0 33 0;
#X connect 30 0 78 0;
#X connect 31 0 26 0;
#X connect 34 0 38 0;
#X connect 34 0 73 0;
#X connect 34 0 74 0;
#X connect 35 0 36 0;
#X connect 36 0 40 0;
#X connect 36 0 65 0;
#X connect 37 0 75 0;
#X connect 38 0 37 0;
#X connect 39 0 34 0;
#X connect 42 0 46 0;
#X connect 42 0 47 0;
#X connect 42 0 51 0;
#X connect 43 0 44 0;
#X connect 44 0 49 0;
#X connect 45 0 50 0;
#X connect 46 0 45 0;
#X connect 47 0 46 1;
#X connect 48 0 42 0;
#X connect 51 0 43 0;
#X connect 52 0 19 0;
#X connect 53 0 25 0;
#X connect 54 0 15 0;
#X connect 55 0 20 0;
#X connect 56 0 17 0;
#X connect 57 0 22 0;
#X connect 58 0 59 0;
#X connect 59 0 60 0;
#X connect 60 0 61 0;
#X connect 61 0 79 0;
#X connect 62 0 60 1;
#X connect 62 0 63 0;
#X connect 65 0 66 0;
#X connect 66 0 67 0;
#X connect 67 0 72 0;
#X connect 68 0 71 0;
#X connect 70 0 67 1;
#X connect 70 0 69 0;
#X connect 72 0 68 0;
#X connect 73 0 35 0;
#X connect 74 0 38 1;
#X connect 75 0 41 0;
#X connect 76 0 2 0;
#X connect 77 0 5 1;
#X connect 78 0 29 0;
#X connect 79 0 64 0;
#X connect 80 0 27 0;
#X connect 81 0 30 1;
